<?xml version="1.0" encoding="UTF-8" standalone="no"?>
<svg
   id="svg4379"
   height="128"
   width="128"
   version="1.1"
   sodipodi:docname="ref.svg"
   inkscape:version="1.4.3 (0d15f75042, 2025-12-25)"
   xml:space="preserve"
   xmlns:inkscape="http://www.inkscape.org/namespaces/inkscape"
   xmlns:sodipodi="http://sodipodi.sourceforge.net/DTD/sodipodi-0.dtd"
   xmlns:xlink="http://www.w3.org/1999/xlink"
   xmlns="http://www.w3.org/2000/svg"
   xmlns:svg="http://www.w3.org/2000/svg"
   xmlns:rdf="http://www.w3.org/1999/02/22-rdf-syntax-ns#"
   xmlns:cc="http://creativecommons.org/ns#"
   xmlns:dc="http://purl.org/dc/elements/1.1/"><sodipodi:namedview
     pagecolor="#ffffff"
     bordercolor="#666666"
     borderopacity="1"
     objecttolerance="10"
     gridtolerance="10"
     guidetolerance="10"
     inkscape:pageopacity="0"
     inkscape:pageshadow="2"
     inkscape:window-width="2560"
     inkscape:window-height="1373"
     id="namedview46"
     showgrid="false"
     inkscape:zoom="7.875"
     inkscape:cx="64"
     inkscape:cy="64"
     inkscape:window-x="0"
     inkscape:window-y="30"
     inkscape:window-maximized="1"
     inkscape:current-layer="svg4379"
     inkscape:document-rotation="0"
     inkscape:showpageshadow="2"
     inkscape:pagecheckerboard="0"
     inkscape:deskcolor="#d1d1d1"><inkscape:grid
       type="xygrid"
       id="grid865"
       empspacing="4"
       originx="0"
       originy="0"
       spacingy="1"
       spacingx="1"
       units="px"
       visible="false" /><inkscape:grid
       type="xygrid"
       id="grid867"
       empspacing="2"
       spacingy="0.5"
       spacingx="0.5"
       dotted="true"
       originx="0"
       originy="0"
       units="px"
       visible="false"
       snapvisiblegridlinesonly="false"
       empcolor="#0099e5"
       empopacity="0.05098039"
       color="#0099e5"
       opacity="0.01960784" /><inkscape:page
       x="0"
       y="0"
       width="128"
       height="128"
       id="page1"
       margin="0"
       bleed="0"
       inkscape:export-filename="32.svg"
       inkscape:export-xdpi="96"
       inkscape:export-ydpi="96" /></sodipodi:namedview><defs
     id="defs4381"><linearGradient
       gradientTransform="matrix(2.7297298,0,0,2.7297298,-1.5135124,-1.513486)"
       gradientUnits="userSpaceOnUse"
       xlink:href="#linearGradient3924-776"
       id="linearGradient3159"
       y2="43"
       x2="23.99999"
       y1="4.999989"
       x1="23.99999" /><linearGradient
       id="linearGradient3924-776"><stop
         offset="0"
         style="stop-color:#ffffff;stop-opacity:1"
         id="stop3124" /><stop
         offset="0.06316455"
         style="stop-color:#ffffff;stop-opacity:0.23529412"
         id="stop3126" /><stop
         offset="0.95056331"
         style="stop-color:#ffffff;stop-opacity:0.15686275"
         id="stop3128" /><stop
         offset="1"
         style="stop-color:#ffffff;stop-opacity:0.39215687"
         id="stop3130" /></linearGradient><linearGradient
       xlink:href="#linearGradient28"
       id="linearGradient882"
       x1="62.871635"
       y1="15.90732"
       x2="62.871635"
       y2="118.42699"
       gradientUnits="userSpaceOnUse"
       gradientTransform="translate(0,-3)" /><linearGradient
       id="linearGradient23"
       inkscape:collect="always"><stop
         style="stop-color:#d4d4d4;stop-opacity:1;"
         offset="0"
         id="stop22" /><stop
         style="stop-color:#bababa;stop-opacity:1;"
         offset="0.18736914"
         id="stop24" /><stop
         style="stop-color:#d4d4d4;stop-opacity:1;"
         offset="0.44839388"
         id="stop25" /><stop
         style="stop-color:#bababa;stop-opacity:1;"
         offset="0.69351602"
         id="stop26" /><stop
         style="stop-color:#bababa;stop-opacity:1;"
         offset="0.93121827"
         id="stop29" /><stop
         style="stop-color:#d4d4d4;stop-opacity:1;"
         offset="1"
         id="stop23" /></linearGradient><linearGradient
       id="linearGradient8"
       inkscape:collect="always"><stop
         style="stop-color:#d4d4d4;stop-opacity:1;"
         offset="0"
         id="stop8" /><stop
         style="stop-color:#bababa;stop-opacity:1;"
         offset="1"
         id="stop9" /></linearGradient><linearGradient
       id="linearGradient28"><stop
         id="stop27"
         offset="0"
         style="stop-color:#33434e;stop-opacity:1;" /><stop
         id="stop28"
         offset="1"
         style="stop-color:#1c222f;stop-opacity:1;" /></linearGradient><linearGradient
       inkscape:collect="always"
       xlink:href="#linearGradient23"
       id="linearGradient15"
       x1="20"
       y1="102"
       x2="108"
       y2="102"
       gradientUnits="userSpaceOnUse" /><linearGradient
       inkscape:collect="always"
       xlink:href="#linearGradient23"
       id="linearGradient21"
       gradientUnits="userSpaceOnUse"
       x1="20"
       y1="102"
       x2="108"
       y2="102" /><linearGradient
       inkscape:collect="always"
       xlink:href="#linearGradient8"
       id="linearGradient86"
       x1="63.5"
       y1="36"
       x2="63.5"
       y2="87.5"
       gradientUnits="userSpaceOnUse" /></defs><metadata
     id="metadata4384"><rdf:RDF><cc:Work
         rdf:about=""><dc:format>image/svg+xml</dc:format><dc:type
           rdf:resource="http://purl.org/dc/dcmitype/StillImage" /></cc:Work></rdf:RDF></metadata><rect
     width="103"
     height="103"
     rx="10"
     ry="10"
     x="12.5"
     y="12.5"
     id="rect5505-21-3"
     style="color:#000000;display:inline;overflow:visible;visibility:visible;fill:url(#linearGradient882);fill-opacity:1;fill-rule:nonzero;stroke:none;stroke-width:1;marker:none;enable-background:accumulate" /><path
     id="path80"
     style="opacity:0.15;fill:#ffffff;fill-opacity:1;stroke:#ffffff;stroke-width:2;stroke-linecap:round;stroke-linejoin:round;stroke-opacity:1"
     d="m 32,36 a 16,8 0 0 0 -16,8 16,4 0 0 1 16,-4 16,4 0 0 1 16,4 16,8 0 0 0 -16,-8 z m 0,4 -0.667969,8.027344 a 8,8 0 0 0 -3.898437,1.40625 L 24,46 v 7 l -6,3 6,3 v 7 l 3.433594,-3.433594 A 8,8 0 0 0 30.019531,63.75 L 28,88 h 8 L 33.980469,63.75 a 8,8 0 0 0 2.585937,-1.183594 L 40,66 v -7 l 6,-3 -6,-3 v -7 l -3.433594,3.433594 a 8,8 0 0 0 -3.898437,-1.40625 z m 66,4 c -4.394588,0 -8,3.605412 -8,8 0,4.207262 3.303454,7.691099 7.441406,7.980469 l -2.621094,10.492187 c -0.987589,-0.81579 -1.990002,-1.684123 -2.9375,-2.371094 -1.742947,-1.2637 -3.175579,-2.425539 -5.339843,-2.304687 -1.08213,0.06042 -2.330606,0.888093 -2.816407,1.917969 -0.485799,1.029876 -0.537044,2.095682 -0.453124,3.382812 0.167839,2.57426 1.047511,6.165718 2.828124,11.53125 L 86.554688,84 H 110 V 70.328125 c 0.021,-0.0255 0.0419,-0.05232 0.0625,-0.07813 C 111.42818,68.542902 112,66.333334 112,64 v -0.4375 l -6.18359,-13.402344 a 2,2 0 0 0 -0.0625,-0.125 C 104.87087,46.579592 101.71774,44 98,44 Z m 0,4 c 2.23283,0 4,1.767172 4,4 0,0.16306 -0.009,0.322887 -0.0273,0.480469 L 97.101562,48.097656 C 97.389481,48.03332 97.69076,48 98,48 Z m -3.835938,2.84375 5.390626,4.847656 C 99.0785,55.888514 98.553126,56 98,56 c -2.232828,0 -4,-1.767172 -4,-4 0,-0.403594 0.05628,-0.79077 0.164062,-1.15625 z M 32,52 A 4,4 0 0 1 32.523438,52.03516 4,4 0 0 1 36,56 4,4 0 0 1 33.636719,59.648438 4,4 0 0 1 32,60 4,4 0 0 1 30.363281,59.648438 4,4 0 0 1 28,56 4,4 0 0 1 31.476562,52.035156 4,4 0 0 1 32,52 Z m 31,1 A 16,16 0 0 0 47,69 v 2 H 79 V 69 A 16,16 0 0 0 63,53 Z m 0,4 A 12,12 0 0 1 74.832031,67 H 51.167969 A 12,12 0 0 1 63,57 Z m 39,1.917969 V 73 h 2 c 0.69378,0 1.3642,-0.08184 2,-0.234375 V 80 H 89.554688 c -1.295424,-4.143214 -2.183805,-7.549686 -2.289063,-9.164062 -0.03176,-0.487134 0.01261,-0.503734 0.04297,-0.742188 0.310932,0.14846 0.994342,0.352688 2.226562,1.246094 1.532902,1.11141 3.358886,2.671992 5.179688,4.195312 l 2.449218,2.046875 4.640627,-18.554687 c 0.0654,-0.03574 0.13097,-0.07187 0.19531,-0.109375 z m 4,1.191406 1.92188,4.164063 c -0.0567,1.493643 -0.39634,2.741508 -0.98438,3.476562 -0.20241,0.253006 -0.68345,0.217838 -0.9375,0.398438 z" /><rect
     width="101"
     height="101"
     rx="9"
     ry="9"
     x="13.5"
     y="13.5"
     id="rect6741-7"
     style="opacity:0.3;fill:none;stroke:url(#linearGradient3159);stroke-width:1;stroke-linecap:round;stroke-linejoin:round;stroke-miterlimit:4;stroke-dasharray:none;stroke-dashoffset:0;stroke-opacity:1" /><rect
     width="103"
     height="103"
     rx="10"
     ry="10"
     x="12.5"
     y="12.5"
     id="rect5505-21-6"
     style="color:#000000;display:inline;overflow:visible;visibility:visible;opacity:0.5;fill:none;stroke:#273445;stroke-width:1;stroke-linecap:round;stroke-linejoin:round;stroke-miterlimit:4;stroke-dasharray:none;stroke-dashoffset:0;stroke-opacity:1;marker:none;enable-background:accumulate" /><g
     id="g21"
     transform="translate(0,-75)"><rect
       style="opacity:0.15;fill:#ffffff;fill-opacity:1;stroke:#ffffff;stroke-width:2;stroke-linejoin:round;stroke-dasharray:none;stroke-opacity:1"
       id="rect19"
       width="88"
       height="4"
       x="20"
       y="101"
       rx="0"
       ry="0" /><rect
       style="fill:url(#linearGradient21);fill-opacity:1;stroke:none;stroke-linejoin:round"
       id="rect20"
       width="88"
       height="4"
       x="20"
       y="100"
       rx="0"
       ry="0" /><rect
       style="opacity:0.15;fill:#000000;fill-opacity:1;stroke:none;stroke-linejoin:round"
       id="rect21"
       width="88"
       height="1"
       x="20"
       y="100" /></g><path
     id="path17-9"
     style="fill:#95989d;fill-opacity:1;stroke:none;stroke-width:2;stroke-linecap:round;stroke-linejoin:round;stroke-opacity:0.501961"
     d="m 32,35 a 16,8 0 0 0 -16,8 16,4 0 0 1 16,-4 16,4 0 0 1 16,4 16,8 0 0 0 -16,-8 z m 0,4 -0.667969,8.027344 a 8,8 0 0 0 -3.898437,1.40625 L 24,45 v 7 l -6,3 6,3 v 7 l 3.433594,-3.433594 A 8,8 0 0 0 30.019531,62.75 L 28,87 h 8 L 33.980469,62.75 a 8,8 0 0 0 2.585937,-1.183594 L 40,65 v -7 l 6,-3 -6,-3 v -7 l -3.433594,3.433594 a 8,8 0 0 0 -3.898437,-1.40625 z m 66,4 c -4.394588,0 -8,3.605412 -8,8 0,4.207262 3.303454,7.691099 7.441406,7.980469 l -2.621094,10.492187 c -0.987589,-0.81579 -1.990002,-1.684123 -2.9375,-2.371094 -1.742947,-1.2637 -3.175579,-2.425539 -5.339843,-2.304687 -1.08213,0.06042 -2.330606,0.888093 -2.816407,1.917969 -0.485799,1.029876 -0.537044,2.095682 -0.453124,3.382812 0.167839,2.57426 1.047511,6.165718 2.828124,11.53125 L 86.554688,83 H 110 V 69.328125 c 0.021,-0.0255 0.0419,-0.05232 0.0625,-0.07813 C 111.42818,67.542902 112,65.333334 112,63 v -0.4375 l -6.18359,-13.402344 a 2,2 0 0 0 -0.0625,-0.125 C 104.87087,45.579592 101.71774,43 98,43 Z m 0,4 c 2.23283,0 4,1.767172 4,4 0,0.16306 -0.009,0.322887 -0.0273,0.480469 L 97.101562,47.097656 C 97.389481,47.03332 97.69076,47 98,47 Z m -3.835938,2.84375 5.390626,4.847656 C 99.0785,54.888514 98.553126,55 98,55 c -2.232828,0 -4,-1.767172 -4,-4 0,-0.403594 0.05628,-0.79077 0.164062,-1.15625 z M 32,51 A 4,4 0 0 1 32.523438,51.03516 4,4 0 0 1 36,55 4,4 0 0 1 33.636719,58.648438 4,4 0 0 1 32,59 4,4 0 0 1 30.363281,58.648438 4,4 0 0 1 28,55 4,4 0 0 1 31.476562,51.035156 4,4 0 0 1 32,51 Z m 31,1 A 16,16 0 0 0 47,68 v 2 H 79 V 68 A 16,16 0 0 0 63,52 Z m 0,4 A 12,12 0 0 1 74.832031,66 H 51.167969 A 12,12 0 0 1 63,56 Z m 39,1.917969 V 72 h 2 c 0.69378,0 1.3642,-0.08184 2,-0.234375 V 79 H 89.554688 c -1.295424,-4.143214 -2.183805,-7.549686 -2.289063,-9.164062 -0.03176,-0.487134 0.01261,-0.503734 0.04297,-0.742188 0.310932,0.14846 0.994342,0.352688 2.226562,1.246094 1.532902,1.11141 3.358886,2.671992 5.179688,4.195312 l 2.449218,2.046875 4.640627,-18.554687 c 0.0654,-0.03574 0.13097,-0.07187 0.19531,-0.109375 z m 4,1.191406 1.92188,4.164063 c -0.0567,1.493643 -0.39634,2.741508 -0.98438,3.476562 -0.20241,0.253006 -0.68345,0.217838 -0.9375,0.398438 z" /><g
     id="g18"
     transform="translate(0,-3)"><rect
       style="opacity:0.15;fill:#ffffff;fill-opacity:1;stroke:#ffffff;stroke-width:2;stroke-linejoin:round;stroke-dasharray:none;stroke-opacity:1"
       id="rect18"
       width="88"
       height="4"
       x="20"
       y="101"
       rx="0"
       ry="0" /><rect
       style="fill:url(#linearGradient15);fill-opacity:1;stroke:none;stroke-linejoin:round"
       id="rect12"
       width="88"
       height="4"
       x="20"
       y="100"
       rx="0"
       ry="0" /><rect
       style="opacity:0.15;fill:#000000;fill-opacity:1;stroke:none;stroke-linejoin:round"
       id="rect16"
       width="88"
       height="1"
       x="20"
       y="100" /></g><g
     id="g40"
     transform="translate(0,-3)"><path
       style="opacity:0.15;fill:#ffffff;fill-opacity:1;stroke:#ffffff;stroke-width:2;stroke-linejoin:round;stroke-opacity:1"
       d="M 72,117 48,97 50,88 48,79 v 8 l -4,12 -12,6 16,-4 15,16 z"
       id="path10"
       sodipodi:nodetypes="cccccccccc" /><path
       style="opacity:1;fill:#0e141f;fill-opacity:1;stroke:none;stroke-width:2;stroke-linejoin:round"
       d="M 74,118 48,96 50,87 48,78 v 8 l -4,12 -12,6 16,-4 16,18 z"
       id="path8" /></g><g
     id="g41"
     transform="translate(0,-3)"><path
       style="opacity:0.15;fill:#ffffff;fill-opacity:1;stroke:#ffffff;stroke-width:2;stroke-linejoin:round;stroke-opacity:1"
       d="m 24,117 4,-6 v 6 z"
       id="path22"
       sodipodi:nodetypes="cccc" /><path
       style="opacity:1;fill:#0e141f;fill-opacity:1;stroke:none;stroke-width:2;stroke-linejoin:round"
       d="m 23,118 5,-8 -1,8 z"
       id="path9"
       sodipodi:nodetypes="cccc" /></g><g
     id="g39"
     transform="translate(0,-3)"><path
       style="opacity:0.15;fill:#ffffff;fill-opacity:1;stroke:#ffffff;stroke-width:2;stroke-linejoin:round;stroke-opacity:1"
       d="m 88,17 v 13 l 10,5 H 88 L 80,47 58,53 78,43 86,33 83,17 Z"
       id="path24"
       sodipodi:nodetypes="cccccccccc" /><path
       style="opacity:1;fill:#1c222f;fill-opacity:1;stroke:none;stroke-width:2;stroke-linejoin:round"
       d="m 88,16 v 13 l 10,5 H 88 L 80,46 58,52 78,42 86,32 83,16 Z"
       id="path5"
       sodipodi:nodetypes="cccccccccc" /><path
       style="opacity:1;fill:#0e141f;fill-opacity:1;stroke:none;stroke-width:2;stroke-linejoin:round;stroke-opacity:1"
       d="m 83,16 h 2 l 3,13 10,5 -10,-2 -9,11 -21,9 20,-10 8,-10 z"
       id="path33"
       sodipodi:nodetypes="cccccccccc" /></g><g
     id="g38"
     transform="translate(0,-3)"><path
       style="opacity:0.15;fill:#ffffff;fill-opacity:1;stroke:#ffffff;stroke-width:2;stroke-linejoin:round;stroke-opacity:1"
       d="m 104,35 h 10 v 6 z"
       id="path25"
       sodipodi:nodetypes="cccc" /><path
       style="opacity:1;fill:#1c222f;fill-opacity:1;stroke:none;stroke-width:2;stroke-linejoin:round"
       d="m 104,34 h 11 v 6 z"
       id="path6"
       sodipodi:nodetypes="cccc" /><path
       style="opacity:1;fill:#0e141f;fill-opacity:1;stroke:none;stroke-width:2;stroke-linejoin:round;stroke-opacity:1"
       d="m 104,34 h 11 v 3 z"
       id="path35" /></g><path
     id="path82"
     style="opacity:0.15;fill:#ffffff;fill-opacity:1;stroke:none;stroke-width:2;stroke-linecap:round;stroke-linejoin:round;stroke-opacity:1"
     d="m 32,36 a 16,8 0 0 0 -16,8 16,4 0 0 1 16,-4 16,4 0 0 1 16,4 16,8 0 0 0 -16,-8 z m 0,4 -0.667969,8.027344 a 8,8 0 0 0 -3.898437,1.40625 L 24,46 v 7 l -6,3 6,3 v 7 l 3.433594,-3.433594 A 8,8 0 0 0 30.019531,63.75 L 28,88 h 8 L 33.980469,63.75 a 8,8 0 0 0 2.585937,-1.183594 L 40,66 v -7 l 6,-3 -6,-3 v -7 l -3.433594,3.433594 a 8,8 0 0 0 -3.898437,-1.40625 z m 66,4 c -4.394588,0 -8,3.605412 -8,8 0,4.207262 3.303454,7.691099 7.441406,7.980469 l -2.621094,10.492187 c -0.987589,-0.81579 -1.990002,-1.684123 -2.9375,-2.371094 -1.742947,-1.2637 -3.175579,-2.425539 -5.339843,-2.304687 -1.08213,0.06042 -2.330606,0.888093 -2.816407,1.917969 -0.485799,1.029876 -0.537044,2.095682 -0.453124,3.382812 0.167839,2.57426 1.047511,6.165718 2.828124,11.53125 L 86.554688,84 H 110 V 70.328125 c 0.021,-0.0255 0.0419,-0.05232 0.0625,-0.07813 C 111.42818,68.542902 112,66.333334 112,64 v -0.4375 l -6.18359,-13.402344 a 2,2 0 0 0 -0.0625,-0.125 C 104.87087,46.579592 101.71774,44 98,44 Z m 0,4 c 2.23283,0 4,1.767172 4,4 0,0.16306 -0.009,0.322887 -0.0273,0.480469 L 97.101562,48.097656 C 97.389481,48.03332 97.69076,48 98,48 Z m -3.835938,2.84375 5.390626,4.847656 C 99.0785,55.888514 98.553126,56 98,56 c -2.232828,0 -4,-1.767172 -4,-4 0,-0.403594 0.05628,-0.79077 0.164062,-1.15625 z M 32,52 A 4,4 0 0 1 32.523438,52.03516 4,4 0 0 1 36,56 4,4 0 0 1 33.636719,59.648438 4,4 0 0 1 32,60 4,4 0 0 1 30.363281,59.648438 4,4 0 0 1 28,56 4,4 0 0 1 31.476562,52.035156 4,4 0 0 1 32,52 Z m 31,1 A 16,16 0 0 0 47,69 v 2 H 79 V 69 A 16,16 0 0 0 63,53 Z m 0,4 A 12,12 0 0 1 74.832031,67 H 51.167969 A 12,12 0 0 1 63,57 Z m 39,1.917969 V 73 h 2 c 0.69378,0 1.3642,-0.08184 2,-0.234375 V 80 H 89.554688 c -1.295424,-4.143214 -2.183805,-7.549686 -2.289063,-9.164062 -0.03176,-0.487134 0.01261,-0.503734 0.04297,-0.742188 0.310932,0.14846 0.994342,0.352688 2.226562,1.246094 1.532902,1.11141 3.358886,2.671992 5.179688,4.195312 l 2.449218,2.046875 4.640627,-18.554687 c 0.0654,-0.03574 0.13097,-0.07187 0.19531,-0.109375 z m 4,1.191406 1.92188,4.164063 c -0.0567,1.493643 -0.39634,2.741508 -0.98438,3.476562 -0.20241,0.253006 -0.68345,0.217838 -0.9375,0.398438 z" /><path
     id="path67"
     style="opacity:1;fill:#abacae;fill-opacity:1;stroke-width:2;stroke-linecap:round"
     d="M 32,36 A 16,8 0 0 0 16.507812,42 16,4 0 0 1 32,39 16,4 0 0 1 47.492188,42 16,8 0 0 0 32,36 Z m 0,3 -0.08398,1 A 16,4 0 0 1 32,40 a 16,4 0 0 1 0.08398,0 z m 0,1 -0.667969,8.027344 a 8,8 0 0 0 -3.898437,1.40625 L 24,46 v 6 1 l -5,2.5 5,2.5 v 1 6 l 3.433594,-3.433594 A 8,8 0 0 0 30.019531,62.75 L 29.9375,63.728516 A 8,8 0 0 0 30.019531,63.75 L 28.083984,87 h 7.832032 L 33.980469,63.75 a 8,8 0 0 0 0.08203,-0.02148 L 33.980469,62.75 a 8,8 0 0 0 2.585937,-1.183594 L 40,65 V 59 58 L 45,55.5 40,53 v -1 -6 l -3.433594,3.433594 a 8,8 0 0 0 -3.898437,-1.40625 z m 66,4 c -4.226732,0 -7.723421,3.335204 -7.984375,7.5 0.249345,3.980169 3.452948,7.202646 7.425781,7.480469 l -0.24414,0.978515 c 0.08119,0.0082 0.162277,0.01576 0.24414,0.02148 l -2.621094,10.492187 c -0.987588,-0.81579 -1.990002,-1.684123 -2.9375,-2.371094 -1.742947,-1.2637 -3.175579,-2.425539 -5.339843,-2.304687 -1.08213,0.06042 -2.330606,0.888093 -2.816407,1.917969 -0.301512,0.639195 -0.436307,1.292706 -0.474609,2.003906 0.0054,0.124374 0.0131,0.250298 0.02148,0.378906 0.167839,2.57426 1.047511,6.165718 2.828124,11.53125 L 86.554688,83 H 110 v -12.671875 -1 c 0.021,-0.0255 0.0419,-0.05232 0.0625,-0.07813 1.25948,-1.574348 1.84448,-3.576963 1.92773,-5.708984 v -0.002 l -6.17382,-13.378906 a 2,2 0 0 0 -0.0625,-0.125 C 104.87087,46.579592 101.71774,44 98,44 Z m 0,3 c 2.23283,0 4,1.767172 4,4 0,0.16306 -0.009,0.322887 -0.0273,0.480469 l -0.006,-0.0059 C 101.98862,51.646113 102,51.821911 102,52 c 0,0.16306 -0.009,0.322887 -0.0273,0.480469 L 97.101562,48.097656 C 97.389482,48.03332 97.69076,48 98,48 c 0.03543,0 0.07028,0.0011 0.105469,0.002 L 97.101562,47.097656 C 97.389482,47.03332 97.69076,47 98,47 Z m -3.835938,2.84375 5.390626,4.847656 c -0.265057,0.109715 -0.546053,0.193896 -0.837891,0.246094 l 0.837891,0.753906 C 99.0785,55.888514 98.553126,56 98,56 95.767172,56 94,54.232828 94,52 94,51.829579 94.0096,51.662216 94.0293,51.498047 94.009655,51.335112 94,51.168822 94,51 c 0,-0.403594 0.05628,-0.79077 0.164062,-1.15625 z M 32,51 A 4,4 0 0 1 32.523438,51.03516 4,4 0 0 1 36,55 a 4,4 0 0 1 -0.0332,0.507812 4,4 0 0 1 0,0.002 A 4,4 0 0 1 36,56 4,4 0 0 1 33.636719,59.648438 4,4 0 0 1 32,60 4,4 0 0 1 30.363281,59.648438 4,4 0 0 1 28,56 a 4,4 0 0 1 0.0332,-0.490234 4,4 0 0 1 0,-0.002 A 4,4 0 0 1 28,55 4,4 0 0 1 31.476562,51.035156 4,4 0 0 1 32,51 Z m 31,2 A 16,16 0 0 0 47,69 v 1 H 79 V 69 A 16,16 0 0 0 63,53 Z m 0,3 a 12,12 0 0 1 11.832031,10 h -0.21289 a 12,12 0 0 1 0.21289,1 H 51.167969 a 12,12 0 0 1 0.21289,-1 h -0.21289 A 12,12 0 0 1 63,56 Z m 39,1.917969 v 1 V 72 h 2 c 0.69378,0 1.3642,-0.08184 2,-0.234375 v 1 V 79 80 H 89.554688 c -1.295424,-4.143214 -2.183805,-7.549686 -2.289063,-9.164062 -0.02766,-0.424321 0.003,-0.492259 0.03125,-0.660157 -0.01354,-0.121001 -0.02435,-0.233963 -0.03125,-0.339843 -0.03176,-0.487134 0.01261,-0.503734 0.04297,-0.742188 0.310932,0.14846 0.994342,0.352688 2.226562,1.246094 1.532902,1.11141 3.358886,2.671992 5.179688,4.195312 l 2.449218,2.046875 4.640627,-18.554687 c 0.0654,-0.03574 0.13097,-0.07187 0.19531,-0.109375 z m 4,1.191406 1.92188,4.164063 c -0.0112,0.295531 -0.0333,0.581249 -0.0664,0.855468 l 0.0664,0.144532 c -0.0567,1.493644 -0.39634,2.741508 -0.98438,3.476562 -0.20241,0.253006 -0.68345,0.217838 -0.9375,0.398438 v -1 -7.039063 z" /><path
     id="path83"
     style="opacity:1;fill:url(#linearGradient86);fill-opacity:1;stroke:none;stroke-width:2;stroke-linecap:round;stroke-linejoin:round;stroke-opacity:0.501961"
     d="M 32,37 A 16,8 0 0 0 18.144531,41 16,4 0 0 1 32,39 16,4 0 0 1 45.855469,41 16,8 0 0 0 32,37 Z m 0,2 -0.166016,2 A 16,4 0 0 1 32,41 a 16,4 0 0 1 0.166016,0 z m 0,2 -0.667969,8.027344 a 8,8 0 0 0 -3.898437,1.40625 L 24,47 v 5 2 l -4,2 4,2 v 2 5 l 3.433594,-3.433594 A 8,8 0 0 0 30.019531,62.75 l -0.162109,1.957031 A 8,8 0 0 0 30.019531,64.75 L 28.166016,87 h 7.667968 L 33.980469,64.75 a 8,8 0 0 0 0.162109,-0.04297 L 33.980469,62.75 a 8,8 0 0 0 2.585937,-1.183594 L 40,65 v -5 -2 l 4,-2 -4,-2 v -2 -5 l -3.433594,3.433594 a 8,8 0 0 0 -3.898437,-1.40625 z m 66,4 c -4.056173,0 -7.440391,3.071426 -7.9375,7 0.474067,3.74705 3.57385,6.714378 7.378906,6.980469 l -0.488281,1.951172 c 0.161034,0.02131 0.324479,0.03737 0.488281,0.04883 l -2.621094,10.492187 c -0.987588,-0.81579 -1.990002,-1.684123 -2.9375,-2.371094 -1.742947,-1.2637 -3.175579,-2.425539 -5.339843,-2.304687 -1.08213,0.06042 -2.330605,0.888093 -2.816407,1.917969 -0.241125,0.511176 -0.375832,1.030481 -0.439453,1.582031 0.199211,2.559572 1.079476,6.104011 2.814453,11.332031 L 86.554688,83 H 110 v -11.671875 -2 c 0.021,-0.0255 0.0419,-0.05232 0.0625,-0.07813 1.08761,-1.359515 1.67246,-3.038148 1.86523,-4.84375 v -0.002 l -6.11132,-13.244141 a 2,2 0 0 0 -0.0625,-0.125 C 104.87087,47.579592 101.71774,45 98,45 Z m 0,2 c 2.23283,0 4,1.767172 4,4 0,0.16306 -0.009,0.322887 -0.0273,0.480469 l -0.45899,-0.41211 C 101.82429,51.639025 102,52.295924 102,53 c 0,0.16306 -0.009,0.322887 -0.0273,0.480469 L 97.101562,49.097656 C 97.389482,49.03332 97.69076,49 98,49 c 0.554258,0 1.079677,0.108767 1.556641,0.306641 L 97.101562,47.097656 C 97.389482,47.03332 97.69076,47 98,47 Z m -3.835938,2.84375 5.390626,4.847656 C 99.0785,54.888514 98.553126,55 98,55 97.884816,55 97.77073,54.9956 97.658203,54.98633 l 1.896485,1.705078 C 99.0785,56.888514 98.553126,57 98,57 95.767172,57 94,55.232828 94,53 94,52.652656 94.04077,52.317705 94.121094,51.998047 94.041359,51.679792 94,51.34535 94,51 c 0,-0.403594 0.05628,-0.79077 0.164062,-1.15625 z M 32,51 A 4,4 0 0 1 32.523438,51.03516 4,4 0 0 1 36,55 4,4 0 0 1 35.871094,56.001953 4,4 0 0 1 36,57 4,4 0 0 1 33.636719,60.648438 4,4 0 0 1 32,61 4,4 0 0 1 30.363281,60.648438 4,4 0 0 1 28,57 4,4 0 0 1 28.126953,56 4,4 0 0 1 28,55 4,4 0 0 1 31.476562,51.035156 4,4 0 0 1 32,51 Z m 31,3 A 16,16 0 0 0 47,70 H 79 A 16,16 0 0 0 63,54 Z m 0,2 a 12,12 0 0 1 11.832031,10 h -0.517578 a 12,12 0 0 1 0.517578,2 H 51.167969 a 12,12 0 0 1 0.517578,-2 H 51.167969 A 12,12 0 0 1 63,56 Z m 39,1.917969 v 2 V 72 h 2 c 0.69378,0 1.3642,-0.08184 2,-0.234375 v 2 V 79 81 H 89.554688 c -1.295424,-4.143214 -2.183805,-7.549686 -2.289063,-9.164062 -0.03176,-0.487134 0.01261,-0.503734 0.04297,-0.742188 0.03951,0.01886 0.08482,0.03858 0.136718,0.06055 -0.09537,-0.519098 -0.156471,-0.962295 -0.179687,-1.318359 -0.03176,-0.487134 0.01261,-0.503734 0.04297,-0.742188 0.310932,0.14846 0.994342,0.352688 2.226562,1.246094 1.532902,1.11141 3.358886,2.671992 5.179688,4.195312 l 2.449218,2.046875 4.640626,-18.554687 c 0.0654,-0.03574 0.13097,-0.07187 0.19531,-0.109375 z m 4,1.191406 1.92188,4.164063 c -0.0217,0.572127 -0.0847,1.108751 -0.1875,1.59375 l 0.1875,0.40625 c -0.0567,1.493643 -0.39634,2.741508 -0.98438,3.476562 -0.20241,0.253006 -0.68345,0.217838 -0.9375,0.398438 v -2 -6.039063 z" /><path
     style="opacity:0.15;fill:#000000;fill-opacity:1;stroke:none;stroke-width:2;stroke-linecap:round;stroke-linejoin:round;stroke-opacity:0.501961"
     d="m 98,43 c -4.394588,0 -8,3.605412 -8,8 0,4.207262 3.303454,7.691099 7.441406,7.980469 l -2.621094,10.492187 c -0.987589,-0.81579 -1.990002,-1.684123 -2.9375,-2.371094 -1.742947,-1.2637 -3.175579,-2.425539 -5.339843,-2.304687 -1.08213,0.06042 -2.330606,0.888093 -2.816407,1.917969 -0.485799,1.029876 -0.537044,2.095682 -0.453124,3.382812 0.167839,2.57426 1.047511,6.165718 2.828124,11.53125 L 86.554688,83 H 110 V 69.328125 c 0.021,-0.0255 0.0419,-0.05232 0.0625,-0.07813 C 111.42818,67.542902 112,65.333334 112,63 v -0.4375 l -6.18359,-13.402344 a 2,2 0 0 0 -0.0625,-0.125 C 104.87087,45.579592 101.71774,43 98,43 Z m 0,4 c 2.23283,0 4,1.767172 4,4 0,0.16306 -0.009,0.322887 -0.0273,0.480469 L 97.101562,47.097656 C 97.389481,47.03332 97.69076,47 98,47 Z m -3.835938,2.84375 5.390626,4.847656 C 99.0785,54.888514 98.553126,55 98,55 c -2.232828,0 -4,-1.767172 -4,-4 0,-0.403594 0.05628,-0.79077 0.164062,-1.15625 z M 102,57.917969 V 72 h 2 c 0.69378,0 1.3642,-0.08184 2,-0.234375 V 79 H 89.554688 c -1.295424,-4.143214 -2.183805,-7.549686 -2.289063,-9.164062 -0.03176,-0.487134 0.01261,-0.503734 0.04297,-0.742188 0.310932,0.14846 0.994342,0.352688 2.226562,1.246094 1.532902,1.11141 3.358886,2.671992 5.179688,4.195312 l 2.449218,2.046875 4.640627,-18.554687 c 0.0654,-0.03574 0.13097,-0.07187 0.19531,-0.109375 z m 4,1.191406 1.92188,4.164063 c -0.0567,1.493643 -0.39634,2.741508 -0.98438,3.476562 -0.20241,0.253006 -0.68345,0.217838 -0.9375,0.398438 z"
     id="path88" /><path
     id="path87"
     style="opacity:0.06;fill:#000000;fill-opacity:1;stroke:none;stroke-width:2;stroke-linecap:round;stroke-linejoin:round;stroke-opacity:0.501961"
     d="m 32,35 a 16,8 0 0 0 -16,8 16,4 0 0 1 16,-4 16,4 0 0 1 16,4 16,8 0 0 0 -16,-8 z m 0,4 -0.667969,8.027344 a 8,8 0 0 0 -3.898437,1.40625 L 24,45 v 7 l -6,3 6,3 v 7 l 3.433594,-3.433594 A 8,8 0 0 0 30.019531,62.75 L 28,87 h 8 L 33.980469,62.75 a 8,8 0 0 0 2.585937,-1.183594 L 40,65 v -7 l 6,-3 -6,-3 v -7 l -3.433594,3.433594 a 8,8 0 0 0 -3.898437,-1.40625 z m 0,12 A 4,4 0 0 1 32.523438,51.03516 4,4 0 0 1 36,55 4,4 0 0 1 33.636719,58.648438 4,4 0 0 1 32,59 4,4 0 0 1 30.363281,58.648438 4,4 0 0 1 28,55 4,4 0 0 1 31.476562,51.035156 4,4 0 0 1 32,51 Z" /></svg>
