<?xml version="1.0" encoding="UTF-8" standalone="no"?>
<svg
   id="svg4379"
   height="32"
   width="32"
   version="1.1"
   sodipodi:docname="ref.svg"
   inkscape:version="1.4.3 (0d15f75042, 2025-12-25)"
   xml:space="preserve"
   xmlns:inkscape="http://www.inkscape.org/namespaces/inkscape"
   xmlns:sodipodi="http://sodipodi.sourceforge.net/DTD/sodipodi-0.dtd"
   xmlns:xlink="http://www.w3.org/1999/xlink"
   xmlns="http://www.w3.org/2000/svg"
   xmlns:svg="http://www.w3.org/2000/svg"
   xmlns:rdf="http://www.w3.org/1999/02/22-rdf-syntax-ns#"
   xmlns:cc="http://creativecommons.org/ns#"
   xmlns:dc="http://purl.org/dc/elements/1.1/"><sodipodi:namedview
     pagecolor="#ffffff"
     bordercolor="#666666"
     borderopacity="1"
     objecttolerance="10"
     gridtolerance="10"
     guidetolerance="10"
     inkscape:pageopacity="0"
     inkscape:pageshadow="2"
     inkscape:window-width="2560"
     inkscape:window-height="1373"
     id="namedview46"
     showgrid="false"
     inkscape:zoom="7.875"
     inkscape:cx="64"
     inkscape:cy="64"
     inkscape:window-x="0"
     inkscape:window-y="30"
     inkscape:window-maximized="1"
     inkscape:current-layer="svg4379"
     inkscape:document-rotation="0"
     inkscape:showpageshadow="2"
     inkscape:pagecheckerboard="0"
     inkscape:deskcolor="#d1d1d1"><inkscape:grid
       type="xygrid"
       id="grid865"
       empspacing="4"
       originx="-270"
       originy="0"
       spacingy="1"
       spacingx="1"
       units="px"
       visible="false" /><inkscape:grid
       type="xygrid"
       id="grid867"
       empspacing="2"
       spacingy="0.5"
       spacingx="0.5"
       dotted="true"
       originx="-270"
       originy="0"
       units="px"
       visible="false"
       snapvisiblegridlinesonly="false"
       empcolor="#0099e5"
       empopacity="0.05098039"
       color="#0099e5"
       opacity="0.01960784" /><inkscape:page
       x="0"
       y="0"
       width="32"
       height="32"
       id="page4"
       margin="0"
       bleed="0"
       inkscape:export-filename="16.svg"
       inkscape:export-xdpi="96"
       inkscape:export-ydpi="96" /></sodipodi:namedview><defs
     id="defs4381"><linearGradient
       id="linearGradient23"
       inkscape:collect="always"><stop
         style="stop-color:#d4d4d4;stop-opacity:1;"
         offset="0"
         id="stop22" /><stop
         style="stop-color:#bababa;stop-opacity:1;"
         offset="0.18736914"
         id="stop24" /><stop
         style="stop-color:#d4d4d4;stop-opacity:1;"
         offset="0.44839388"
         id="stop25" /><stop
         style="stop-color:#bababa;stop-opacity:1;"
         offset="0.69351602"
         id="stop26" /><stop
         style="stop-color:#bababa;stop-opacity:1;"
         offset="0.93121827"
         id="stop29" /><stop
         style="stop-color:#d4d4d4;stop-opacity:1;"
         offset="1"
         id="stop23" /></linearGradient><linearGradient
       id="linearGradient8"
       inkscape:collect="always"><stop
         style="stop-color:#d4d4d4;stop-opacity:1;"
         offset="0"
         id="stop8" /><stop
         style="stop-color:#bababa;stop-opacity:1;"
         offset="1"
         id="stop9" /></linearGradient><linearGradient
       id="linearGradient28"><stop
         id="stop27"
         offset="0"
         style="stop-color:#33434e;stop-opacity:1;" /><stop
         id="stop28"
         offset="1"
         style="stop-color:#1c222f;stop-opacity:1;" /></linearGradient><linearGradient
       x1="23.99999"
       y1="6.2399855"
       x2="23.99999"
       y2="41.759987"
       id="linearGradient4161"
       xlink:href="#linearGradient3924-0"
       gradientUnits="userSpaceOnUse"
       gradientTransform="matrix(0.67567568,0,0,0.67567568,-0.21622,-0.21620627)" /><linearGradient
       id="linearGradient3924-0"><stop
         id="stop3926-6"
         style="stop-color:#ffffff;stop-opacity:1"
         offset="0" /><stop
         id="stop3928-3"
         style="stop-color:#ffffff;stop-opacity:0.23529412"
         offset="0.06249999" /><stop
         id="stop3930-2"
         style="stop-color:#ffffff;stop-opacity:0.15686275"
         offset="0.93749994" /><stop
         id="stop3932-62"
         style="stop-color:#ffffff;stop-opacity:0.39215687"
         offset="1" /></linearGradient><linearGradient
       xlink:href="#linearGradient28"
       id="linearGradient856-2"
       x1="23.528315"
       y1="6.08318"
       x2="23.528315"
       y2="44.23307"
       gradientUnits="userSpaceOnUse"
       gradientTransform="matrix(0.69230783,0,0,0.69230789,-0.6154,-1.307693)" /><linearGradient
       inkscape:collect="always"
       xlink:href="#linearGradient23"
       id="linearGradient72"
       x1="276"
       y1="7.5"
       x2="296"
       y2="7.5"
       gradientUnits="userSpaceOnUse"
       gradientTransform="translate(-270)" /><linearGradient
       inkscape:collect="always"
       xlink:href="#linearGradient23"
       id="linearGradient73"
       x1="276"
       y1="24.5"
       x2="296"
       y2="24.5"
       gradientUnits="userSpaceOnUse"
       gradientTransform="translate(-270)" /><linearGradient
       inkscape:collect="always"
       xlink:href="#linearGradient8"
       id="linearGradient77"
       x1="286"
       y1="9"
       x2="286"
       y2="23"
       gradientUnits="userSpaceOnUse"
       gradientTransform="translate(-270)" /></defs><metadata
     id="metadata4384"><rdf:RDF><cc:Work
         rdf:about=""><dc:format>image/svg+xml</dc:format><dc:type
           rdf:resource="http://purl.org/dc/dcmitype/StillImage" /></cc:Work></rdf:RDF></metadata><rect
     style="color:#000000;display:inline;overflow:visible;visibility:visible;opacity:1;fill:url(#linearGradient856-2);fill-opacity:1;fill-rule:nonzero;stroke:none;stroke-width:0.999998;stroke-opacity:0.5;marker:none;enable-background:accumulate"
     id="rect5505-21-1-2"
     y="2.4999962"
     x="2.5"
     ry="3"
     rx="3"
     height="27.000008"
     width="27.000008" /><path
     id="path79"
     style="opacity:0.15;fill:#ffffff;fill-opacity:1;stroke:none;stroke-linecap:round;stroke-linejoin:round"
     d="M 7.5,10 C 7,10 5.5,10.5 5,11.5 V 12 C 5.5,11.5 7,11 7.5,11 H 7.85742 L 7.71094,12.021484 C 6.92835,12.136051 6.28678,12.701055 6.07422,13.462891 L 5,14 6.07422,14.537109 c 0.15809,0.568408 0.55908,1.038018 1.0957,1.283203 L 6,24 h 4 L 8.83008,15.820312 C 9.3667,15.575126 9.76769,15.105517 9.92578,14.537109 L 11,14 9.92578,13.462891 C 9.71322,12.701055 9.07165,12.136051 8.28906,12.021484 L 8.14258,11 H 8.5 c 0.5,0 2,0.5 2.5,1 V 11.5 C 10.5,10.5 9,10 8.5,10 H 8 Z M 8,13 c 0.0437,-2.65e-4 0.0875,0.0023 0.13086,0.0078 0.01,0.0018 0.0196,0.0038 0.0293,0.0059 0.0282,0.004 0.0562,0.0092 0.084,0.01563 0.0177,0.0054 0.0353,0.01123 0.0527,0.01758 0.0224,0.0064 0.0445,0.01355 0.0664,0.02148 0.0138,0.0056 0.0275,0.01142 0.041,0.01758 0.36193,0.159969 0.59546,0.518351 0.5957,0.914062 -2.2e-4,0.28001 -0.11782,0.547103 -0.32422,0.736328 -0.0303,0.02799 -0.0622,0.05407 -0.0957,0.07813 -0.0672,0.04785 -0.13998,0.08721 -0.2168,0.117188 C 8.24749,14.976801 8.12429,14.99999 8,15 7.87571,14.999987 7.75251,14.97681 7.63672,14.93164 7.55992,14.90167 7.48708,14.8623 7.41992,14.814452 7.38642,14.790402 7.35452,14.764312 7.32422,14.736322 7.11782,14.547108 7.00022,14.280008 7,14 c 2.2e-4,-0.395713 0.23377,-0.754075 0.5957,-0.914062 0.0135,-0.0062 0.0272,-0.01203 0.041,-0.01758 0.0219,-0.0079 0.044,-0.0151 0.0664,-0.02148 0.0174,-0.0063 0.035,-0.01221 0.0527,-0.01758 0.0278,-0.0064 0.0558,-0.01161 0.084,-0.01563 0.01,-0.0021 0.0195,-0.0041 0.0293,-0.0059 0.0434,-0.0054 0.0871,-0.008 0.13086,-0.0078 z m 16,0 c -1.10457,0 -2,0.895431 -2,2 0,1.104569 0.89543,2 2,2 l -1,5 c -0.66667,-1.333333 -1.12896,-2.360797 -2,-2 -1.23184,0.510245 -0.66667,2.666667 0,4 h 5 v -4 h 1 l -1,-5 c 0,-1.104569 -0.89543,-2 -2,-2 z m -8,1 a 4,4 0 0 0 -4,4 v 1 h 8 v -1 a 4,4 0 0 0 -4,-4 z m 8,0 c 0.55228,0 1,0.447715 1,1 0,0.552285 -0.44772,1 -1,1 -0.55228,0 -1,-0.447715 -1,-1 0,-0.552285 0.44772,-1 1,-1 z m -8,1 a 3,3 0 0 1 3,3 h -6 a 3,3 0 0 1 3,-3 z" /><rect
     style="opacity:1;fill:url(#linearGradient73);fill-opacity:1;stroke:none;stroke-width:1;stroke-linecap:round;stroke-linejoin:round;stroke-dasharray:none;stroke-opacity:1"
     id="rect66"
     width="20"
     height="1"
     x="6"
     y="24" /><rect
     style="opacity:1;fill:url(#linearGradient72);fill-opacity:1;stroke:none;stroke-width:1;stroke-linecap:round;stroke-linejoin:round;stroke-dasharray:none;stroke-opacity:1"
     id="rect65"
     width="20"
     height="1"
     x="6"
     y="7" /><rect
     style="opacity:0.35;fill:none;stroke:url(#linearGradient4161);stroke-width:1;stroke-linecap:round;stroke-linejoin:round;stroke-miterlimit:4;stroke-dasharray:none;stroke-dashoffset:0;stroke-opacity:1"
     id="rect6741-7-4"
     y="3.4999998"
     x="3.5"
     ry="2"
     rx="2"
     height="25"
     width="25" /><rect
     style="color:#000000;display:inline;overflow:visible;visibility:visible;opacity:0.5;fill:none;fill-opacity:1;fill-rule:nonzero;stroke:#273445;stroke-width:0.999998;stroke-opacity:1;marker:none;enable-background:accumulate"
     id="rect869"
     y="2.4999962"
     x="2.5"
     ry="3"
     rx="3"
     height="27.000008"
     width="27.000008" /><path
     id="path1"
     style="opacity:1;fill:#abacae;fill-opacity:1;stroke:none;stroke-linecap:round;stroke-linejoin:round"
     d="M 7.5,9 C 7,9 5.5,9.5 5,10.5 V 11 C 5.5,10.5 7,10 7.5,10 H 7.85742 L 7.71094,11.021484 C 6.92835,11.136051 6.28678,11.701055 6.07422,12.462891 L 5,13 6.07422,13.537109 c 0.15809,0.568408 0.55908,1.038018 1.0957,1.283203 L 6,23 h 4 L 8.83008,14.820312 C 9.3667,14.575126 9.76769,14.105517 9.92578,13.537109 L 11,13 9.92578,12.462891 C 9.71322,11.701055 9.07165,11.136051 8.28906,11.021484 L 8.14258,10 H 8.5 c 0.5,0 2,0.5 2.5,1 V 10.5 C 10.5,9.5 9,9 8.5,9 H 8 Z M 8,12 c 0.0437,-2.61e-4 0.0875,0.0023 0.13086,0.0078 0.01,0.0018 0.0196,0.0038 0.0293,0.0059 0.0282,0.004 0.0562,0.0092 0.084,0.01563 0.0177,0.0054 0.0353,0.01123 0.0527,0.01758 0.0224,0.0064 0.0445,0.01355 0.0664,0.02148 0.0138,0.0056 0.0275,0.01142 0.041,0.01758 0.36193,0.159986 0.59548,0.518349 0.5957,0.914062 -2.2e-4,0.28001 -0.11782,0.547103 -0.32422,0.736328 -0.0303,0.02799 -0.0622,0.05407 -0.0957,0.07813 -0.0672,0.04785 -0.13998,0.08721 -0.2168,0.117188 C 8.24749,13.976801 8.12429,13.99999 8,14 7.87571,13.999988 7.75251,13.97681 7.63672,13.93164 7.55992,13.90167 7.48708,13.8623 7.41992,13.814452 7.38642,13.790412 7.35452,13.764312 7.32422,13.736322 7.11786,13.547071 7.00022,13.28001 7,13 c 2.2e-4,-0.395713 0.23377,-0.754075 0.5957,-0.914062 0.0135,-0.0062 0.0272,-0.01203 0.041,-0.01758 0.0219,-0.0079 0.044,-0.0151 0.0664,-0.02148 0.0174,-0.0063 0.035,-0.01221 0.0527,-0.01758 0.0278,-0.0064 0.0558,-0.0116 0.084,-0.01563 0.01,-0.0021 0.0195,-0.0041 0.0293,-0.0059 0.0434,-0.0055 0.0871,-0.0081 0.13086,-0.0078 z m 16,0 c -1.10457,0 -2,0.895431 -2,2 0,1.104569 0.89543,2 2,2 l -1,5 c -0.66667,-1.333333 -1.12896,-2.360797 -2,-2 -1.23184,0.510245 -0.66667,2.666667 0,4 h 5 v -4 h 1 l -1,-5 c 0,-1.104569 -0.89543,-2 -2,-2 z m -8,1 a 4,4 0 0 0 -4,4 v 1 h 8 v -1 a 4,4 0 0 0 -4,-4 z m 8,0 c 0.55228,0 1,0.447715 1,1 0,0.552285 -0.44772,1 -1,1 -0.55228,0 -1,-0.447715 -1,-1 0,-0.552285 0.44772,-1 1,-1 z m -8,1 a 3,3 0 0 1 3,3 h -6 a 3,3 0 0 1 3,-3 z" /><g
     id="g55"
     transform="translate(-271)"><path
       id="path55"
       style="opacity:0.15;fill:#ffffff;fill-opacity:1;stroke:#ffffff;stroke-width:1;stroke-linejoin:round;stroke-dasharray:none;stroke-opacity:1"
       d="m 277.5,28.5 2,-3 -1,3 z m 12,0 -5,-5 1,-3 -2,-3 v 5 l -4,3 4,-1 3,4 z" /><g
       id="g54"><path
         id="path15-7"
         style="fill:#0e141f;stroke:none;stroke-width:0.5;stroke-linecap:round;stroke-linejoin:round;stroke-opacity:0.501961"
         d="m 284,18 v 2.5 l -0.5,2.5 -3.5,2 4,-1 4,5 h 2 l -5.5,-6 0.5,-2.5 z"
         sodipodi:nodetypes="cccccccccc" /></g><path
       style="fill:#0e141f;stroke:none;stroke-width:0.5;stroke-linecap:round;stroke-linejoin:round;stroke-opacity:0.501961"
       d="m 279,26 -3,3 h 2 z"
       id="path16-9"
       sodipodi:nodetypes="cccc" /></g><g
     id="g51"
     transform="translate(-270)"><path
       style="opacity:0.15;fill:#ffffff;fill-opacity:1;stroke:#ffffff;stroke-width:1;stroke-linecap:round;stroke-linejoin:round;stroke-dasharray:none;stroke-opacity:1"
       d="M 293.5,3.5 V 7 l 1.5,1.5 h -2 l -2,2.892908 -5.5,1.107092 5,-2 2,-3 -2,-4 z"
       id="path51"
       sodipodi:nodetypes="cccccccccc" /><path
       style="fill:#1c222f;fill-opacity:1;stroke:none;stroke-width:0.5;stroke-linecap:round;stroke-linejoin:round;stroke-opacity:0.501961"
       d="m 293,3 v 3 l 2,2 h -2 l -2,3 -5,1 4.5,-2 1.5,-3 -1,-4 z"
       id="path11-61"
       sodipodi:nodetypes="cccccccccc" /><path
       style="opacity:1;fill:#0e141f;fill-opacity:1;stroke:none;stroke-width:2;stroke-linejoin:round;stroke-dasharray:none;stroke-opacity:1"
       d="m 291,3 2,3 2,2 -2,-1 -2,3 -5,2 4.5,-2 1.5,-3 z"
       id="path49" /></g><g
     id="g53"
     transform="translate(-270)"><path
       style="opacity:0.15;fill:#ffffff;fill-opacity:1;stroke:#ffffff;stroke-width:1;stroke-linejoin:round;stroke-dasharray:none;stroke-opacity:1"
       d="m 298.5,10.5 -2.5,-2 h 2.37808 z"
       id="path53"
       sodipodi:nodetypes="cccc" /><path
       style="fill:#1c222f;fill-opacity:1;stroke:none;stroke-width:0.5;stroke-linecap:round;stroke-linejoin:round;stroke-opacity:0.501961"
       d="m 296,8 h 3 v 2 z"
       id="path12-8"
       sodipodi:nodetypes="cccc" /><path
       style="opacity:1;fill:#0e141f;fill-opacity:1;stroke:none;stroke-width:2;stroke-linejoin:round;stroke-dasharray:none;stroke-opacity:1"
       d="m 296,8 h 3 v 1 z"
       id="path50" /></g><path
     id="path72"
     style="opacity:1;fill:url(#linearGradient77);fill-opacity:1;stroke:none;stroke-linecap:round;stroke-linejoin:round"
     d="M 7.85742,10 7.71484,11 H 7.85742 L 7.71094,12.021484 C 6.92835,12.136051 6.28678,12.701055 6.07422,13.462891 L 6,13.5 6.0742,13.53711 c 0.15809,0.568408 0.55908,1.038018 1.0957,1.283203 l -0.13281,0.933594 c 0.0434,0.02377 0.0877,0.04592 0.13281,0.06641 L 6.14258,23 H 9.85742 L 8.83008,15.820312 c 0.0451,-0.02048 0.0894,-0.04263 0.13281,-0.06641 L 8.83008,14.820308 C 9.3667,14.575122 9.76769,14.105513 9.92578,13.537105 L 10,13.5 9.9258,13.46289 C 9.71324,12.701054 9.07167,12.13605 8.28908,12.021483 L 8.14258,11 H 8.28516 L 8.14258,10 H 8 Z M 8,12 c 0.0437,-2.61e-4 0.0875,0.0023 0.13086,0.0078 0.01,0.0018 0.0196,0.0038 0.0293,0.0059 0.0282,0.004 0.0562,0.0092 0.084,0.01563 0.0177,0.0054 0.0353,0.01123 0.0527,0.01758 0.0224,0.0064 0.0445,0.01355 0.0664,0.02148 0.0138,0.0056 0.0275,0.01142 0.041,0.01758 0.36193,0.159986 0.59548,0.518349 0.5957,0.914062 -2.4e-4,0.175609 -0.0467,0.348058 -0.13477,0.5 0.0881,0.151942 0.13453,0.324391 0.13477,0.5 -2.2e-4,0.28001 -0.11782,0.547103 -0.32422,0.736328 -0.0303,0.02799 -0.0622,0.05407 -0.0957,0.07813 -0.0672,0.04785 -0.13998,0.08721 -0.2168,0.117188 C 8.24749,14.976801 8.12429,14.99999 8,15 7.87571,14.999988 7.75251,14.97681 7.63672,14.93164 7.55992,14.90167 7.48708,14.8623 7.41992,14.814452 7.38642,14.790412 7.35452,14.764312 7.32422,14.736322 7.11786,14.547071 7.00022,14.28001 7,14 7.00024,13.824391 7.0467,13.651942 7.13477,13.5 7.04667,13.348058 7.00024,13.175609 7,13 c 2.2e-4,-0.395713 0.23377,-0.754075 0.5957,-0.914062 0.0135,-0.0062 0.0272,-0.01203 0.041,-0.01758 0.0219,-0.0079 0.044,-0.0151 0.0664,-0.02148 0.0174,-0.0063 0.035,-0.01221 0.0527,-0.01758 0.0278,-0.0064 0.0558,-0.0116 0.084,-0.01563 0.01,-0.0021 0.0195,-0.0041 0.0293,-0.0059 0.0434,-0.0055 0.0871,-0.0081 0.13086,-0.0078 z m 15.86133,1.009766 c -0.85681,0.0594 -1.58003,0.659199 -1.79688,1.490234 0.21685,0.831035 0.94007,1.430835 1.79688,1.490234 C 23.36748,15.921084 23.00005,15.498666 23,15 23.00024,14.824391 23.0467,14.651942 23.13477,14.5 23.04667,14.348058 23.00024,14.175609 23,14 c 5e-5,-0.498666 0.36748,-0.921084 0.86133,-0.990234 z m 0.27734,0 C 24.63252,13.078916 24.99995,13.501334 25,14 c -2.4e-4,0.175609 -0.0467,0.348058 -0.13477,0.5 0.0881,0.151942 0.13453,0.324391 0.13477,0.5 0,0.552285 -0.44772,1 -1,1 l -0.19727,0.990234 C 23.86833,16.996734 23.93412,17 24,17 l -1,5 c -0.66667,-1.333333 -1.12896,-2.360797 -2,-2 -0.39352,0.163 -0.60353,0.493619 -0.68555,0.912109 C 20.41738,21.623919 20.69823,22.396469 21,23 h 5 v -3 -1 h 0.80078 L 26,15 c -0.003,-1.048845 -0.81501,-1.917515 -1.86133,-1.990234 z m -8.55078,1.019531 A 4,4 0 0 0 12,18 h 1 a 3,3 0 0 1 0.17188,-1 H 13 a 3,3 0 0 1 2.58789,-2.970703 z m 0.82422,0 A 3,3 0 0 1 19,17 H 18.82812 A 3,3 0 0 1 19,18 h 1 a 4,4 0 0 0 -3.58789,-3.970703 z" /><path
     style="opacity:0.15;fill:#000000;fill-opacity:1;stroke:none;stroke-linecap:round;stroke-linejoin:round"
     d="m 24,12 a 2,2 0 0 0 -2,2 2,2 0 0 0 2,2 l -1,5 c -0.66667,-1.333333 -1.12896,-2.360797 -2,-2 -1.23184,0.510245 -0.66667,2.666667 0,4 h 5 v -4 h 1 l -1,-5 a 2,2 0 0 0 -2,-2 z m 0,1 a 1,1 0 0 1 1,1 1,1 0 0 1 -1,1 1,1 0 0 1 -1,-1 1,1 0 0 1 1,-1 z"
     id="path78" /><path
     style="opacity:0.06;fill:#000000;fill-opacity:1;stroke:none;stroke-linecap:round;stroke-linejoin:round"
     d="M 7.5,9 C 7,9 5.5,9.5 5,10.5 V 11 C 5.5,10.5 7,10 7.5,10 H 7.85742 L 7.71094,11.021484 A 2,2 0 0 0 6.07422,12.462891 L 5,13 6.07422,13.537109 a 2,2 0 0 0 1.0957,1.283203 L 6,23 h 4 L 8.83008,14.820312 a 2,2 0 0 0 1.0957,-1.283203 L 11,13 9.92578,12.462891 A 2,2 0 0 0 8.28906,11.021484 L 8.14258,10 H 8.5 c 0.5,0 2,0.5 2.5,1 V 10.5 C 10.5,9.5 9,9 8.5,9 H 8 Z M 8,12 a 1,1 0 0 1 0.13086,0.0078 1,1 0 0 1 0.0293,0.0059 1,1 0 0 1 0.084,0.01563 1,1 0 0 1 0.0527,0.01758 1,1 0 0 1 0.0664,0.02148 1,1 0 0 1 0.041,0.01758 A 1,1 0 0 1 9,13 1,1 0 0 1 8.67578,13.736328 1,1 0 0 1 8.58008,13.814458 1,1 0 0 1 8.36328,13.931646 1,1 0 0 1 8,14 1,1 0 0 1 7.63672,13.93164 1,1 0 0 1 7.41992,13.814452 1,1 0 0 1 7.32422,13.736322 1,1 0 0 1 7,13 a 1,1 0 0 1 0.5957,-0.914062 1,1 0 0 1 0.041,-0.01758 1,1 0 0 1 0.0664,-0.02148 1,1 0 0 1 0.0527,-0.01758 1,1 0 0 1 0.084,-0.01563 1,1 0 0 1 0.0293,-0.0059 A 1,1 0 0 1 8,12 Z"
     id="path77" /></svg>
