<?xml version="1.0" encoding="UTF-8" standalone="no"?>
<svg
   id="svg4379"
   height="48"
   width="48"
   version="1.1"
   sodipodi:docname="ref.svg"
   inkscape:version="1.4.3 (0d15f75042, 2025-12-25)"
   xml:space="preserve"
   xmlns:inkscape="http://www.inkscape.org/namespaces/inkscape"
   xmlns:sodipodi="http://sodipodi.sourceforge.net/DTD/sodipodi-0.dtd"
   xmlns:xlink="http://www.w3.org/1999/xlink"
   xmlns="http://www.w3.org/2000/svg"
   xmlns:svg="http://www.w3.org/2000/svg"
   xmlns:rdf="http://www.w3.org/1999/02/22-rdf-syntax-ns#"
   xmlns:cc="http://creativecommons.org/ns#"
   xmlns:dc="http://purl.org/dc/elements/1.1/"><sodipodi:namedview
     pagecolor="#ffffff"
     bordercolor="#666666"
     borderopacity="1"
     objecttolerance="10"
     gridtolerance="10"
     guidetolerance="10"
     inkscape:pageopacity="0"
     inkscape:pageshadow="2"
     inkscape:window-width="2560"
     inkscape:window-height="1373"
     id="namedview46"
     showgrid="false"
     inkscape:zoom="7.875"
     inkscape:cx="64"
     inkscape:cy="64"
     inkscape:window-x="0"
     inkscape:window-y="30"
     inkscape:window-maximized="1"
     inkscape:current-layer="svg4379"
     inkscape:document-rotation="0"
     inkscape:showpageshadow="2"
     inkscape:pagecheckerboard="0"
     inkscape:deskcolor="#d1d1d1"><inkscape:grid
       type="xygrid"
       id="grid865"
       empspacing="4"
       originx="-212"
       originy="0"
       spacingy="1"
       spacingx="1"
       units="px"
       visible="false" /><inkscape:grid
       type="xygrid"
       id="grid867"
       empspacing="2"
       spacingy="0.5"
       spacingx="0.5"
       dotted="true"
       originx="-212"
       originy="0"
       units="px"
       visible="false"
       snapvisiblegridlinesonly="false"
       empcolor="#0099e5"
       empopacity="0.05098039"
       color="#0099e5"
       opacity="0.01960784" /><inkscape:page
       x="0"
       y="0"
       width="48"
       height="48"
       id="page3"
       margin="0"
       bleed="0"
       inkscape:export-filename="48.svg"
       inkscape:export-xdpi="96"
       inkscape:export-ydpi="96" /></sodipodi:namedview><defs
     id="defs4381"><linearGradient
       id="linearGradient6"><stop
         offset="0"
         style="stop-color:#ffffff;stop-opacity:1"
         id="stop3" /><stop
         offset="0.06944445"
         style="stop-color:#ffffff;stop-opacity:0.23529412"
         id="stop4" /><stop
         offset="0.93055558"
         style="stop-color:#ffffff;stop-opacity:0.15686275"
         id="stop5" /><stop
         offset="1"
         style="stop-color:#ffffff;stop-opacity:0.39215687"
         id="stop6" /></linearGradient><linearGradient
       id="linearGradient23"
       inkscape:collect="always"><stop
         style="stop-color:#d4d4d4;stop-opacity:1;"
         offset="0"
         id="stop22" /><stop
         style="stop-color:#bababa;stop-opacity:1;"
         offset="0.18736914"
         id="stop24" /><stop
         style="stop-color:#d4d4d4;stop-opacity:1;"
         offset="0.44839388"
         id="stop25" /><stop
         style="stop-color:#bababa;stop-opacity:1;"
         offset="0.69351602"
         id="stop26" /><stop
         style="stop-color:#bababa;stop-opacity:1;"
         offset="0.93121827"
         id="stop29" /><stop
         style="stop-color:#d4d4d4;stop-opacity:1;"
         offset="1"
         id="stop23" /></linearGradient><linearGradient
       id="linearGradient8"
       inkscape:collect="always"><stop
         style="stop-color:#d4d4d4;stop-opacity:1;"
         offset="0"
         id="stop8" /><stop
         style="stop-color:#bababa;stop-opacity:1;"
         offset="1"
         id="stop9" /></linearGradient><linearGradient
       id="linearGradient28"><stop
         id="stop27"
         offset="0"
         style="stop-color:#33434e;stop-opacity:1;" /><stop
         id="stop28"
         offset="1"
         style="stop-color:#1c222f;stop-opacity:1;" /></linearGradient><linearGradient
       xlink:href="#linearGradient28"
       id="linearGradient930-9-2"
       x1="16.767664"
       y1="2.7676599"
       x2="16.767664"
       y2="29.896721"
       gradientUnits="userSpaceOnUse"
       gradientTransform="matrix(1.444444,0,0,1.444444,0.88891,0.888891)" /><linearGradient
       inkscape:collect="always"
       xlink:href="#linearGradient6"
       id="linearGradient3"
       x1="236"
       y1="6"
       x2="236"
       y2="42"
       gradientUnits="userSpaceOnUse"
       gradientTransform="translate(-212)" /><linearGradient
       inkscape:collect="always"
       xlink:href="#linearGradient23"
       id="linearGradient75"
       x1="220"
       y1="11"
       x2="252"
       y2="11"
       gradientUnits="userSpaceOnUse"
       gradientTransform="translate(-212)" /><linearGradient
       inkscape:collect="always"
       xlink:href="#linearGradient23"
       id="linearGradient76"
       x1="220"
       y1="37"
       x2="252"
       y2="37"
       gradientUnits="userSpaceOnUse"
       gradientTransform="translate(-212)" /><linearGradient
       inkscape:collect="always"
       xlink:href="#linearGradient8"
       id="linearGradient96"
       x1="236"
       y1="13"
       x2="236"
       y2="34"
       gradientUnits="userSpaceOnUse"
       gradientTransform="translate(-212)" /></defs><metadata
     id="metadata4384"><rdf:RDF><cc:Work
         rdf:about=""><dc:format>image/svg+xml</dc:format><dc:type
           rdf:resource="http://purl.org/dc/dcmitype/StillImage" /></cc:Work></rdf:RDF></metadata><rect
     style="color:#000000;font-variation-settings:normal;display:inline;overflow:visible;visibility:visible;opacity:1;vector-effect:none;fill:url(#linearGradient930-9-2);fill-opacity:1;fill-rule:nonzero;stroke:#273445;stroke-width:1;stroke-linecap:butt;stroke-linejoin:miter;stroke-miterlimit:4;stroke-dasharray:none;stroke-dashoffset:0;stroke-opacity:0.501961;marker:none;enable-background:accumulate;stop-color:#000000;stop-opacity:1"
     id="rect5505-21-1"
     y="4.4999952"
     x="4.5000153"
     ry="4"
     rx="4"
     height="39"
     width="39" /><rect
     style="opacity:1;fill:url(#linearGradient75);fill-opacity:1;stroke:none;stroke-width:1;stroke-linecap:round;stroke-linejoin:round;stroke-dasharray:none;stroke-opacity:1"
     id="rect63"
     width="32"
     height="2"
     x="8"
     y="10"
     ry="0"
     rx="0" /><rect
     style="opacity:1;fill:url(#linearGradient76);fill-opacity:1;stroke:none;stroke-width:1;stroke-linecap:round;stroke-linejoin:round;stroke-dasharray:none;stroke-opacity:1"
     id="rect64"
     width="32"
     height="2"
     x="8"
     y="36"
     ry="0"
     rx="0" /><rect
     style="opacity:0.35;fill:none;fill-opacity:1;stroke:url(#linearGradient3);stroke-width:1;stroke-linejoin:round;stroke-dasharray:none;stroke-opacity:1"
     id="rect1"
     width="37"
     height="37"
     x="5.5"
     y="5.5"
     ry="3"
     rx="3" /><g
     id="g47"
     transform="translate(-212)"><path
       id="path45"
       style="opacity:0.15;fill:#ffffff;fill-opacity:1;stroke:#ffffff;stroke-width:1;stroke-linecap:round;stroke-linejoin:round;stroke-dasharray:none;stroke-opacity:1"
       d="m 230.5,27.5 -0.0961,8 -4.90392,2 h 6 l 4,5 h 4 l -8,-6.5 1,-2.5 z"
       sodipodi:nodetypes="ccccccccc" /><path
       id="path15-9"
       style="fill:#0e141f;stroke:none;stroke-width:0.666667;stroke-linecap:round;stroke-linejoin:round;stroke-opacity:0.501961"
       d="m 231,28 v 3.5 l -1,4 -4,1.5 5,-0.5 6,6.5 h 3 l -8.5,-8 0.5,-3 z"
       sodipodi:nodetypes="cccccccccc" /></g><g
     id="g46"
     transform="translate(-212)"><path
       style="opacity:0.15;fill:#ffffff;fill-opacity:1;stroke:#ffffff;stroke-width:1;stroke-linecap:round;stroke-linejoin:round;stroke-dasharray:none;stroke-opacity:1"
       d="m 224.5,39.5 -2,3 h 1 z"
       id="path46"
       sodipodi:nodetypes="cccc" /><path
       style="fill:#0e141f;stroke:none;stroke-width:0.666667;stroke-linecap:round;stroke-linejoin:round;stroke-opacity:0.501961"
       d="m 224,40 -3,3 h 2 z"
       id="path16-1"
       sodipodi:nodetypes="cccc" /></g><g
     id="g49"
     transform="translate(-212)"><path
       style="opacity:0.15;fill:#ffffff;fill-opacity:1;stroke:#ffffff;stroke-width:1;stroke-linecap:round;stroke-linejoin:round;stroke-dasharray:none;stroke-opacity:1"
       d="m 246.5,5.5 -0.5,5.5 3.5,1.5 h -3.22824 l -1.77176,4 -9,2 7,-3 3,-4 -2,-6 z"
       id="path47"
       sodipodi:nodetypes="cccccccccc" /><path
       style="fill:#1c222f;fill-opacity:1;stroke:none;stroke-width:0.666667;stroke-linecap:round;stroke-linejoin:round;stroke-opacity:0.501961"
       d="m 246,5 v 5 l 3,2 h -3 l -2,4 -8,2 7,-3 2,-4 -1,-6 z"
       id="path11-6"
       sodipodi:nodetypes="cccccccccc" /><path
       style="opacity:1;fill:#0e141f;fill-opacity:1;stroke:none;stroke-linejoin:round"
       d="m 244,5 2,5 3,2 -3,-1 -3,4.5 -7,2.5 7,-3 2,-4 z"
       id="path2"
       sodipodi:nodetypes="ccccccccc" /></g><g
     id="g48"
     transform="translate(-212)"><path
       style="opacity:0.15;fill:#ffffff;fill-opacity:1;stroke:#ffffff;stroke-width:1;stroke-linecap:round;stroke-linejoin:round;stroke-dasharray:none;stroke-opacity:1"
       d="m 250.5,12.5 h 4 v 2 z"
       id="path48"
       sodipodi:nodetypes="cccc" /><path
       style="fill:#1c222f;fill-opacity:1;stroke:none;stroke-width:0.666667;stroke-linecap:round;stroke-linejoin:round;stroke-opacity:0.501961"
       d="m 251,12 h 4 v 2 z"
       id="path12-2"
       sodipodi:nodetypes="cccc" /><path
       style="opacity:1;fill:#0e141f;fill-opacity:1;stroke:none;stroke-linejoin:round"
       d="m 255,13 -4,-1 h 4 z"
       id="path44" /></g><path
     id="path70"
     style="opacity:1;fill:#abacae;fill-opacity:1;stroke:none;stroke-linecap:round;stroke-linejoin:round"
     d="m 12,13 a 5,3 0 0 0 -5,3 5,3 0 0 0 0.28711,1.001953 5,3 0 0 1 4.52148,-2 l -0.28906,3.037109 a 3,3 0 0 0 -1.31836,0.560547 L 9,17 v 3 l -2,1 2,1 v 3 l 1.19922,-1.599609 a 3,3 0 0 0 0.77148,0.417968 L 10,34 h 4 L 13.0293,23.818359 a 3,3 0 0 0 0.77148,-0.417968 L 15,25 v -3 l 2,-1 -2,-1 v -3 l -1.20117,1.599609 a 3,3 0 0 0 -1.31836,-0.560547 l -0.28906,-3.037109 a 5,3 0 0 1 4.52148,2 A 5,3 0 0 0 17,16 5,3 0 0 0 12,13 Z m 24,5 c -1.65685,0 -3,1.343146 -3,3 0,1.528171 1.14164,2.789858 2.61914,2.976562 l -1.0293,3.091797 c -0.008,-0.0074 -0.006,-0.0082 -0.0137,-0.01563 -0.35009,-0.32364 -0.74305,-0.645688 -1.22265,-0.878906 -0.47961,-0.233218 -1.17259,-0.404473 -1.82618,-0.05469 -0.82951,0.443941 -1.15674,1.311476 -1.26172,2.082031 -0.10497,0.770554 -0.0331,1.563962 0.0859,2.310547 0.23815,1.493169 0.70508,2.818359 0.70508,2.818359 L 31.28906,34 H 39 v -6.109375 c 0.27931,-0.178601 0.53728,-0.388844 0.76953,-0.621094 C 40.48917,26.549896 41,25.583333 41,24.5 V 24.263672 L 38.89453,20.052734 A 1,1 0 0 0 38.7832,19.876953 C 38.33878,18.776198 37.25996,18 36,18 Z m -24,2 a 1,1 0 0 1 0.12695,0.0078 1,1 0 0 1 0.004,0 1,1 0 0 1 0.22266,0.05859 1,1 0 0 1 0.0234,0.0078 1,1 0 0 1 0.0352,0.01563 1,1 0 0 1 0.0879,0.04492 1,1 0 0 1 0.0996,0.06641 1,1 0 0 1 0.041,0.0332 1,1 0 0 1 0.0566,0.04883 1,1 0 0 1 0.0859,0.0957 1,1 0 0 1 0.0742,0.105469 1,1 0 0 1 0.002,0.0039 1,1 0 0 1 0.0312,0.0625 1,1 0 0 1 0.0313,0.0625 1,1 0 0 1 0.043,0.125 1,1 0 0 1 0.008,0.03516 A 1,1 0 0 1 13,21 a 1,1 0 0 1 -0.008,0.123047 1,1 0 0 1 -0.11133,0.349609 1,1 0 0 1 -0.0645,0.103516 1,1 0 0 1 0,0.002 1,1 0 0 1 -0.0859,0.103516 1,1 0 0 1 -0.0957,0.08984 1,1 0 0 1 -0.008,0.0059 1,1 0 0 1 -0.35742,0.185547 A 1,1 0 0 1 12,22 a 1,1 0 0 1 -0.26953,-0.03711 1,1 0 0 1 -0.35156,-0.179688 1,1 0 0 1 -0.01,-0.0078 1,1 0 0 1 -0.0195,-0.01953 1,1 0 0 1 -0.0723,-0.06641 1,1 0 0 1 -0.008,-0.0078 1,1 0 0 1 -0.0156,-0.01758 1,1 0 0 1 -0.0586,-0.07227 1,1 0 0 1 -0.0312,-0.04492 1,1 0 0 1 -0.0391,-0.06445 1,1 0 0 1 -0.0391,-0.07813 1,1 0 0 1 -0.008,-0.01953 1,1 0 0 1 -0.043,-0.123047 1,1 0 0 1 -0.0176,-0.07813 1,1 0 0 1 -0.01,-0.06055 A 1,1 0 0 1 11,21 a 1,1 0 0 1 0.0273,-0.226562 1,1 0 0 1 0.008,-0.03516 1,1 0 0 1 0.043,-0.125 1,1 0 0 1 0.002,-0.0059 1,1 0 0 1 0.0293,-0.05664 1,1 0 0 1 0.0312,-0.0625 1,1 0 0 1 0.002,-0.0039 1,1 0 0 1 0.0742,-0.105469 1,1 0 0 1 0.084,-0.09375 1,1 0 0 1 0.002,-0.002 1,1 0 0 1 0.004,-0.0039 1,1 0 0 1 0.041,-0.03516 1,1 0 0 1 0.0117,-0.0098 1,1 0 0 1 0.041,-0.0332 1,1 0 0 1 0.0996,-0.06641 1,1 0 0 1 0.0879,-0.04492 1,1 0 0 1 0.0352,-0.01563 1,1 0 0 1 0.0234,-0.0078 1,1 0 0 1 0.22266,-0.05859 A 1,1 0 0 1 12,20 Z m 11,0 a 6,6 0 0 0 -6,6 v 2 h 12 v -2 a 6,6 0 0 0 -6,-6 z m 13,0 c 0.55228,0 1,0.447715 1,1 0,0.552285 -0.44772,1 -1,1 -0.55228,0 -1,-0.447715 -1,-1 0,-0.552285 0.44772,-1 1,-1 z m -13,2 a 4,4 0 0 1 4,4 h -8 a 4,4 0 0 1 4,-4 z m 15.16797,1.072266 0.77539,1.548828 c -0.0383,0.396722 -0.21863,0.865115 -0.58789,1.234375 -0.0943,0.09426 -0.20688,0.08951 -0.31445,0.144531 A 1,1 0 0 0 38,26 v -2.763672 c 0.0584,-0.05224 0.11385,-0.107458 0.16797,-0.164062 z m -5.75977,4.86914 c 0.0177,0.0075 0.0415,0.01723 0.0703,0.03125 0.18223,0.08862 0.47278,0.301581 0.74023,0.548828 0.53491,0.494495 0.98438,1.082032 0.98437,1.082032 L 35.34764,31.119141 36.2207,28.5 H 37 V 32 h -4.22461 c -0.13047,-0.414676 -0.30145,-0.876252 -0.44922,-1.802734 -0.10135,-0.635451 -0.1404,-1.283644 -0.0801,-1.726563 0.0414,-0.304426 0.10741,-0.455311 0.16211,-0.529297 z" /><path
     id="path93"
     style="baseline-shift:baseline;display:inline;overflow:visible;opacity:0.15;vector-effect:none;fill:#ffffff;stroke-linecap:round;enable-background:accumulate;stop-color:#000000;stop-opacity:1"
     d="m 12,14 a 5,3 0 0 0 -5,3 5,3 0 0 0 0.28711,1.001953 5,3 0 0 1 4.52148,-2 l -0.28906,3.037109 a 3,3 0 0 0 -1.31836,0.560547 L 9,18 v 3 l -2,1 2,1 v 3 l 1.19922,-1.599609 a 3,3 0 0 0 0.77148,0.417968 L 10,35 h 4 L 13.0293,24.818359 a 3,3 0 0 0 0.77148,-0.417968 L 15,26 v -3 l 2,-1 -2,-1 v -3 l -1.20117,1.599609 a 3,3 0 0 0 -1.31836,-0.560547 l -0.28906,-3.037109 a 5,3 0 0 1 4.52148,2 A 5,3 0 0 0 17,17 5,3 0 0 0 12,14 Z m 24,5 c -1.65685,0 -3,1.343146 -3,3 0,1.528171 1.14164,2.789858 2.61914,2.976562 l -1.0293,3.091797 c -0.008,-0.0074 -0.006,-0.0082 -0.0137,-0.01563 -0.35009,-0.32364 -0.74305,-0.645688 -1.22265,-0.878906 -0.47961,-0.233218 -1.17259,-0.40447 -1.82618,-0.05469 -0.82951,0.443941 -1.15674,1.311476 -1.26172,2.082031 -0.10497,0.770554 -0.0331,1.563962 0.0859,2.310547 0.23815,1.493169 0.70508,2.818359 0.70508,2.818359 L 31.28906,35 H 39 v -6.109375 c 0.27931,-0.178601 0.53728,-0.388844 0.76953,-0.621094 C 40.48917,27.549896 41,26.583333 41,25.5 V 25.263672 L 38.89453,21.052734 A 1,1 0 0 0 38.7832,20.876953 C 38.33878,19.776198 37.25996,19 36,19 Z m -24,2 a 1,1 0 0 1 0.12695,0.0078 1,1 0 0 1 0.004,0 1,1 0 0 1 0.22266,0.05859 1,1 0 0 1 0.0234,0.0078 1,1 0 0 1 0.0352,0.01563 1,1 0 0 1 0.0879,0.04492 1,1 0 0 1 0.0996,0.06641 1,1 0 0 1 0.041,0.0332 1,1 0 0 1 0.0566,0.04883 1,1 0 0 1 0.0859,0.0957 1,1 0 0 1 0.0742,0.105469 1,1 0 0 1 0.002,0.0039 1,1 0 0 1 0.0312,0.0625 1,1 0 0 1 0.0313,0.0625 1,1 0 0 1 0.043,0.125 1,1 0 0 1 0.008,0.03516 A 1,1 0 0 1 13,22 a 1,1 0 0 1 -0.008,0.123047 1,1 0 0 1 -0.11133,0.349609 1,1 0 0 1 -0.0645,0.103516 1,1 0 0 1 0,0.002 1,1 0 0 1 -0.0859,0.103516 1,1 0 0 1 -0.0957,0.08984 1,1 0 0 1 -0.008,0.0059 1,1 0 0 1 -0.35742,0.185547 A 1,1 0 0 1 12,23 a 1,1 0 0 1 -0.26953,-0.03711 1,1 0 0 1 -0.35156,-0.179688 1,1 0 0 1 -0.01,-0.0078 1,1 0 0 1 -0.0195,-0.01953 1,1 0 0 1 -0.0723,-0.06641 1,1 0 0 1 -0.008,-0.0078 1,1 0 0 1 -0.0156,-0.01758 1,1 0 0 1 -0.0586,-0.07227 1,1 0 0 1 -0.0312,-0.04492 1,1 0 0 1 -0.0391,-0.06445 1,1 0 0 1 -0.0391,-0.07813 1,1 0 0 1 -0.008,-0.01953 1,1 0 0 1 -0.043,-0.123047 1,1 0 0 1 -0.0176,-0.07813 1,1 0 0 1 -0.01,-0.06055 A 1,1 0 0 1 11,22 a 1,1 0 0 1 0.0273,-0.226562 1,1 0 0 1 0.008,-0.03516 1,1 0 0 1 0.043,-0.125 1,1 0 0 1 0.002,-0.0059 1,1 0 0 1 0.0293,-0.05664 1,1 0 0 1 0.0312,-0.0625 1,1 0 0 1 0.002,-0.0039 1,1 0 0 1 0.0742,-0.105469 1,1 0 0 1 0.084,-0.09375 1,1 0 0 1 0.002,-0.002 1,1 0 0 1 0.004,-0.0039 1,1 0 0 1 0.041,-0.03516 1,1 0 0 1 0.0117,-0.0098 1,1 0 0 1 0.041,-0.0332 1,1 0 0 1 0.0996,-0.06641 1,1 0 0 1 0.0879,-0.04492 1,1 0 0 1 0.0352,-0.01563 1,1 0 0 1 0.0234,-0.0078 1,1 0 0 1 0.22266,-0.05859 A 1,1 0 0 1 12,21 Z m 11,0 a 6,6 0 0 0 -6,6 v 2 h 12 v -2 a 6,6 0 0 0 -6,-6 z m 13,0 c 0.55228,0 1,0.447715 1,1 0,0.552285 -0.44772,1 -1,1 -0.55228,0 -1,-0.447715 -1,-1 0,-0.552285 0.44772,-1 1,-1 z m -13,2 a 4,4 0 0 1 4,4 h -8 a 4,4 0 0 1 4,-4 z m 15.16797,1.072266 0.77539,1.548828 c -0.0383,0.396722 -0.21863,0.865115 -0.58789,1.234375 -0.0943,0.09426 -0.20688,0.08951 -0.31445,0.144531 A 1,1 0 0 0 38,27 v -2.763672 c 0.0584,-0.05224 0.11385,-0.107458 0.16797,-0.164062 z m -5.75977,4.86914 c 0.0177,0.0075 0.0415,0.01723 0.0703,0.03125 0.18223,0.08862 0.47278,0.301581 0.74023,0.548828 0.53491,0.494495 0.98438,1.082032 0.98437,1.082032 L 35.34764,32.119141 36.2207,29.5 H 37 V 33 h -4.22461 c -0.13047,-0.414676 -0.30145,-0.876252 -0.44922,-1.802734 -0.10135,-0.635451 -0.14038,-1.283644 -0.0801,-1.726563 0.0414,-0.304426 0.10741,-0.455311 0.16211,-0.529297 z" /><path
     id="path89"
     style="baseline-shift:baseline;display:inline;overflow:visible;opacity:1;vector-effect:none;fill:url(#linearGradient96);stroke-linecap:round;enable-background:accumulate;stop-color:#000000;stop-opacity:1"
     d="m 12,14 a 5,3 0 0 0 -4.92969,2.5 5,3 0 0 0 0.2168,0.501953 5,3 0 0 1 4.52148,-2 l -0.0957,1.001953 a 5,3 0 0 1 0.0957,-0.002 l -0.28906,3.037109 a 3,3 0 0 0 -1.31836,0.560547 L 9,18 v 2 1 L 8,21.5 9,22 v 1 2 l 1.19922,-1.599609 a 3,3 0 0 0 0.77148,0.417968 l -0.0918,0.964844 a 3,3 0 0 0 0.0918,0.03516 L 10.0957,34 h 3.8086 l -0.875,-9.181641 a 3,3 0 0 0 0.0918,-0.03516 l -0.0918,-0.964844 a 3,3 0 0 0 0.77148,-0.417968 L 15,25 V 23 22 L 16,21.5 15,21 v -1 -2 l -1.20117,1.599609 a 3,3 0 0 0 -1.31836,-0.560547 l -0.28906,-3.037109 a 5,3 0 0 1 0.0957,0.002 L 12.19141,15.002 a 5,3 0 0 1 4.52148,2 A 5,3 0 0 0 16.92969,16.5 5,3 0 0 0 12,14 Z m 24,5 c -1.48653,0 -2.72099,1.081091 -2.95898,2.5 0.21729,1.296052 1.26536,2.310675 2.57812,2.476562 l -0.31445,0.94336 c 0.10272,0.02433 0.20794,0.04318 0.31445,0.05664 l -1.0293,3.091797 c -0.008,-0.0074 -0.006,-0.0082 -0.0137,-0.01563 -0.35009,-0.32364 -0.74305,-0.645688 -1.22265,-0.878906 -0.47961,-0.233218 -1.17259,-0.40447 -1.82618,-0.05469 -0.82951,0.443941 -1.15674,1.311476 -1.26172,2.082031 -0.0138,0.101533 -0.0252,0.20252 -0.0332,0.304687 0.0231,0.340072 0.0669,0.677949 0.11914,1.00586 0.23815,1.493169 0.70508,2.818359 0.70508,2.818359 L 31.28906,34 H 39 v -5.109375 -1 c 0.27931,-0.178601 0.53728,-0.388844 0.76953,-0.621094 0.57386,-0.573854 1.01477,-1.305063 1.16992,-2.126953 L 38.89453,21.052734 A 1,1 0 0 0 38.7832,20.876953 C 38.33878,19.776198 37.25996,19 36,19 Z m -24,1 a 1,1 0 0 1 0.12695,0.0078 1,1 0 0 1 0.004,0 1,1 0 0 1 0.22266,0.05859 1,1 0 0 1 0.0234,0.0078 1,1 0 0 1 0.0352,0.01563 1,1 0 0 1 0.0879,0.04492 1,1 0 0 1 0.0996,0.06641 1,1 0 0 1 0.041,0.0332 1,1 0 0 1 0.0566,0.04883 1,1 0 0 1 0.0859,0.0957 1,1 0 0 1 0.0742,0.105469 1,1 0 0 1 0.002,0.0039 1,1 0 0 1 0.0312,0.0625 1,1 0 0 1 0.0313,0.0625 1,1 0 0 1 0.043,0.125 1,1 0 0 1 0.008,0.03516 A 1,1 0 0 1 13,21 a 1,1 0 0 1 -0.008,0.123047 1,1 0 0 1 -0.11133,0.349609 1,1 0 0 1 -0.0156,0.02734 1,1 0 0 1 0.0254,0.05078 1,1 0 0 1 0.0313,0.0625 1,1 0 0 1 0.043,0.125 1,1 0 0 1 0.008,0.03516 A 1,1 0 0 1 13,22 a 1,1 0 0 1 -0.008,0.123047 1,1 0 0 1 -0.11133,0.349609 1,1 0 0 1 -0.0645,0.103516 1,1 0 0 1 0,0.002 1,1 0 0 1 -0.0859,0.103516 1,1 0 0 1 -0.0957,0.08984 1,1 0 0 1 -0.008,0.0059 1,1 0 0 1 -0.35742,0.185547 A 1,1 0 0 1 12,23 a 1,1 0 0 1 -0.26953,-0.03711 1,1 0 0 1 -0.35156,-0.179688 1,1 0 0 1 -0.01,-0.0078 1,1 0 0 1 -0.0195,-0.01953 1,1 0 0 1 -0.0723,-0.06641 1,1 0 0 1 -0.008,-0.0078 1,1 0 0 1 -0.0156,-0.01758 1,1 0 0 1 -0.0586,-0.07227 1,1 0 0 1 -0.0312,-0.04492 1,1 0 0 1 -0.0391,-0.06445 1,1 0 0 1 -0.0391,-0.07813 1,1 0 0 1 -0.008,-0.01953 1,1 0 0 1 -0.043,-0.123047 1,1 0 0 1 -0.0176,-0.07813 1,1 0 0 1 -0.01,-0.06055 A 1,1 0 0 1 11,22 a 1,1 0 0 1 0.0273,-0.226562 1,1 0 0 1 0.008,-0.03516 1,1 0 0 1 0.043,-0.125 1,1 0 0 1 0.002,-0.0059 1,1 0 0 1 0.0293,-0.05664 1,1 0 0 1 0.0254,-0.05078 1,1 0 0 1 -0.01,-0.01758 1,1 0 0 1 -0.0391,-0.07813 1,1 0 0 1 -0.008,-0.01953 1,1 0 0 1 -0.043,-0.123047 1,1 0 0 1 -0.0176,-0.07813 1,1 0 0 1 -0.01,-0.06055 A 1,1 0 0 1 11,21 a 1,1 0 0 1 0.0273,-0.226562 1,1 0 0 1 0.008,-0.03516 1,1 0 0 1 0.043,-0.125 1,1 0 0 1 0.002,-0.0059 1,1 0 0 1 0.0293,-0.05664 1,1 0 0 1 0.0312,-0.0625 1,1 0 0 1 0.002,-0.0039 1,1 0 0 1 0.0742,-0.105469 1,1 0 0 1 0.084,-0.09375 1,1 0 0 1 0.002,-0.002 1,1 0 0 1 0.004,-0.0039 1,1 0 0 1 0.041,-0.03516 1,1 0 0 1 0.0117,-0.0098 1,1 0 0 1 0.041,-0.0332 1,1 0 0 1 0.0996,-0.06641 1,1 0 0 1 0.0879,-0.04492 1,1 0 0 1 0.0352,-0.01563 1,1 0 0 1 0.0234,-0.0078 1,1 0 0 1 0.22266,-0.05859 A 1,1 0 0 1 12,20 Z m 24,0 c 0.55228,0 1,0.447715 1,1 0,0.182144 -0.0477,0.352913 -0.13281,0.5 C 36.95229,21.647087 37,21.817856 37,22 c 0,0.552285 -0.44772,1 -1,1 -0.55228,0 -1,-0.447715 -1,-1 0,-0.182144 0.0477,-0.352913 0.13281,-0.5 C 35.04773,21.352913 35,21.182144 35,21 c 0,-0.552285 0.44772,-1 1,-1 z m -13,1 a 6,6 0 0 0 -6,6 v 1 h 12 v -1 a 6,6 0 0 0 -6,-6 z m 0,1 a 4,4 0 0 1 4,4 H 26.87305 A 4,4 0 0 1 27,27 h -8 a 4,4 0 0 1 0.12695,-1 H 19 a 4,4 0 0 1 4,-4 z m 15.16797,1.072266 0.77539,1.548828 c -0.0197,0.203768 -0.0768,0.426091 -0.17774,0.644531 l 0.17774,0.355469 c -0.0383,0.396722 -0.21863,0.865115 -0.58789,1.234375 -0.0943,0.09426 -0.20688,0.08951 -0.31445,0.144531 A 1,1 0 0 0 38,27 v -1 -1.763672 -1 c 0.0584,-0.05224 0.11385,-0.107458 0.16797,-0.164062 z m -5.75977,4.86914 c 0.0177,0.0075 0.0415,0.01723 0.0703,0.03125 0.18223,0.08862 0.47278,0.301581 0.74023,0.548828 0.53491,0.494495 0.98438,1.082032 0.98437,1.082032 L 35.34764,31.119141 36.2207,28.5 H 37 v 1 2.5 1 h -4.22461 c -0.13047,-0.414676 -0.30145,-0.876252 -0.44922,-1.802734 -0.0988,-0.619432 -0.1379,-1.251653 -0.084,-1.69336 -0.0322,-0.390076 -0.0343,-0.752517 0.004,-1.033203 0.0414,-0.304426 0.10741,-0.455311 0.16211,-0.529297 z M 35.25781,32 35.34766,32.119141 35.38672,32 Z" /><path
     style="opacity:0.15;fill:#000000;fill-opacity:1;stroke:none;stroke-linecap:round;stroke-linejoin:round"
     d="m 36,18 c -1.65685,0 -3,1.343146 -3,3 0,1.528171 1.14164,2.789858 2.61914,2.976562 l -1.0293,3.091797 c -0.008,-0.0074 -0.006,-0.0082 -0.0137,-0.01563 -0.35009,-0.32364 -0.74305,-0.645688 -1.22265,-0.878906 -0.47961,-0.233218 -1.17259,-0.404473 -1.82618,-0.05469 -0.82951,0.443941 -1.15674,1.311476 -1.26172,2.082031 -0.10497,0.770554 -0.0331,1.563962 0.0859,2.310547 0.23815,1.493169 0.70508,2.818359 0.70508,2.818359 L 31.28906,34 H 39 v -6.109375 c 0.27931,-0.178601 0.53728,-0.388844 0.76953,-0.621094 C 40.48917,26.549896 41,25.583333 41,24.5 V 24.263672 L 38.89453,20.052734 A 1,1 0 0 0 38.7832,19.876953 C 38.33878,18.776198 37.25996,18 36,18 Z m 0,2 c 0.55228,0 1,0.447715 1,1 0,0.552285 -0.44772,1 -1,1 -0.55228,0 -1,-0.447715 -1,-1 0,-0.552285 0.44772,-1 1,-1 z m 2.16797,3.072266 0.77539,1.548828 c -0.0383,0.396722 -0.21863,0.865115 -0.58789,1.234375 -0.0943,0.09426 -0.20688,0.08951 -0.31445,0.144531 A 1,1 0 0 0 38,26 v -2.763672 c 0.0584,-0.05224 0.11385,-0.107458 0.16797,-0.164062 z m -5.75977,4.86914 c 0.0177,0.0075 0.0415,0.01723 0.0703,0.03125 0.18223,0.08862 0.47278,0.301581 0.74023,0.548828 0.53491,0.494495 0.98438,1.082032 0.98437,1.082032 L 35.34764,31.119141 36.2207,28.5 H 37 V 32 h -4.22461 c -0.13047,-0.414676 -0.30145,-0.876252 -0.44922,-1.802734 -0.10135,-0.635451 -0.1404,-1.283644 -0.0801,-1.726563 0.0414,-0.304426 0.10741,-0.455311 0.16211,-0.529297 z"
     id="path97" /><path
     style="opacity:0.06;fill:#000000;fill-opacity:1;stroke:none;stroke-linecap:round;stroke-linejoin:round"
     d="m 12,13 a 5,3 0 0 0 -5,3 5,3 0 0 0 0.28711,1.001953 5,3 0 0 1 4.52148,-2 l -0.28906,3.037109 a 3,3 0 0 0 -1.31836,0.560547 L 9,17 v 3 l -2,1 2,1 v 3 l 1.19922,-1.599609 a 3,3 0 0 0 0.77148,0.417968 L 10,34 h 4 L 13.0293,23.818359 a 3,3 0 0 0 0.77148,-0.417968 L 15,25 v -3 l 2,-1 -2,-1 v -3 l -1.20117,1.599609 a 3,3 0 0 0 -1.31836,-0.560547 l -0.28906,-3.037109 a 5,3 0 0 1 4.52148,2 A 5,3 0 0 0 17,16 5,3 0 0 0 12,13 Z m 0,7 a 1,1 0 0 1 0.12695,0.0078 1,1 0 0 1 0.004,0 1,1 0 0 1 0.22266,0.05859 1,1 0 0 1 0.0234,0.0078 1,1 0 0 1 0.0352,0.01563 1,1 0 0 1 0.0879,0.04492 1,1 0 0 1 0.0996,0.06641 1,1 0 0 1 0.041,0.0332 1,1 0 0 1 0.0566,0.04883 1,1 0 0 1 0.0859,0.0957 1,1 0 0 1 0.0742,0.105469 1,1 0 0 1 0.002,0.0039 1,1 0 0 1 0.0312,0.0625 1,1 0 0 1 0.0313,0.0625 1,1 0 0 1 0.043,0.125 1,1 0 0 1 0.008,0.03516 A 1,1 0 0 1 13,21 a 1,1 0 0 1 -0.008,0.123047 1,1 0 0 1 -0.11133,0.349609 1,1 0 0 1 -0.0645,0.103516 1,1 0 0 1 0,0.002 1,1 0 0 1 -0.0859,0.103516 1,1 0 0 1 -0.0957,0.08984 1,1 0 0 1 -0.008,0.0059 1,1 0 0 1 -0.35742,0.185547 A 1,1 0 0 1 12,22 a 1,1 0 0 1 -0.26953,-0.03711 1,1 0 0 1 -0.35156,-0.179688 1,1 0 0 1 -0.01,-0.0078 1,1 0 0 1 -0.0195,-0.01953 1,1 0 0 1 -0.0723,-0.06641 1,1 0 0 1 -0.008,-0.0078 1,1 0 0 1 -0.0156,-0.01758 1,1 0 0 1 -0.0586,-0.07227 1,1 0 0 1 -0.0312,-0.04492 1,1 0 0 1 -0.0391,-0.06445 1,1 0 0 1 -0.0391,-0.07813 1,1 0 0 1 -0.008,-0.01953 1,1 0 0 1 -0.043,-0.123047 1,1 0 0 1 -0.0176,-0.07813 1,1 0 0 1 -0.01,-0.06055 A 1,1 0 0 1 11,21 a 1,1 0 0 1 0.0273,-0.226562 1,1 0 0 1 0.008,-0.03516 1,1 0 0 1 0.043,-0.125 1,1 0 0 1 0.002,-0.0059 1,1 0 0 1 0.0293,-0.05664 1,1 0 0 1 0.0312,-0.0625 1,1 0 0 1 0.002,-0.0039 1,1 0 0 1 0.0742,-0.105469 1,1 0 0 1 0.084,-0.09375 1,1 0 0 1 0.002,-0.002 1,1 0 0 1 0.004,-0.0039 1,1 0 0 1 0.041,-0.03516 1,1 0 0 1 0.0117,-0.0098 1,1 0 0 1 0.041,-0.0332 1,1 0 0 1 0.0996,-0.06641 1,1 0 0 1 0.0879,-0.04492 1,1 0 0 1 0.0352,-0.01563 1,1 0 0 1 0.0234,-0.0078 1,1 0 0 1 0.22266,-0.05859 A 1,1 0 0 1 12,20 Z"
     id="path96" /></svg>
