<?xml version="1.0" encoding="UTF-8" standalone="no"?>
<svg
   version="1.1"
   width="64"
   height="64"
   id="svg6333"
   sodipodi:docname="64.svg"
   inkscape:version="1.4.3 (0d15f75042, 2025-12-25)"
   xml:space="preserve"
   xmlns:inkscape="http://www.inkscape.org/namespaces/inkscape"
   xmlns:sodipodi="http://sodipodi.sourceforge.net/DTD/sodipodi-0.dtd"
   xmlns:xlink="http://www.w3.org/1999/xlink"
   xmlns="http://www.w3.org/2000/svg"
   xmlns:svg="http://www.w3.org/2000/svg"
   xmlns:rdf="http://www.w3.org/1999/02/22-rdf-syntax-ns#"
   xmlns:cc="http://creativecommons.org/ns#"
   xmlns:dc="http://purl.org/dc/elements/1.1/"><sodipodi:namedview
     pagecolor="#ffffff"
     bordercolor="#666666"
     borderopacity="1"
     objecttolerance="10"
     gridtolerance="10"
     guidetolerance="10"
     inkscape:pageopacity="0"
     inkscape:pageshadow="2"
     inkscape:window-width="2560"
     inkscape:window-height="1373"
     id="namedview38"
     showgrid="false"
     inkscape:zoom="15.75"
     inkscape:cx="32"
     inkscape:cy="32"
     inkscape:window-x="0"
     inkscape:window-y="30"
     inkscape:window-maximized="1"
     inkscape:current-layer="svg6333"
     inkscape:document-rotation="0"
     inkscape:showpageshadow="2"
     inkscape:pagecheckerboard="0"
     inkscape:deskcolor="#d1d1d1"
     showguides="false"><inkscape:grid
       type="xygrid"
       id="grid858"
       empspacing="4"
       originx="0"
       originy="0"
       spacingy="1"
       spacingx="1"
       units="px"
       visible="false" /><inkscape:grid
       type="xygrid"
       id="grid860"
       empspacing="2"
       spacingy="0.5"
       spacingx="0.5"
       dotted="true"
       originx="0"
       originy="0"
       units="px"
       visible="false" /><inkscape:page
       x="0"
       y="0"
       width="64"
       height="64"
       id="page1"
       margin="0"
       bleed="0" /></sodipodi:namedview><defs
     id="defs6335"><linearGradient
       id="linearGradient23"
       inkscape:collect="always"><stop
         style="stop-color:#d4d4d4;stop-opacity:1;"
         offset="0"
         id="stop22" /><stop
         style="stop-color:#bababa;stop-opacity:1;"
         offset="0.18736914"
         id="stop24" /><stop
         style="stop-color:#d4d4d4;stop-opacity:1;"
         offset="0.44839388"
         id="stop25" /><stop
         style="stop-color:#bababa;stop-opacity:1;"
         offset="0.69351602"
         id="stop26" /><stop
         style="stop-color:#bababa;stop-opacity:1;"
         offset="0.93121827"
         id="stop29" /><stop
         style="stop-color:#d4d4d4;stop-opacity:1;"
         offset="1"
         id="stop23" /></linearGradient><linearGradient
       id="linearGradient8"
       inkscape:collect="always"><stop
         style="stop-color:#d4d4d4;stop-opacity:1;"
         offset="0"
         id="stop8" /><stop
         style="stop-color:#bababa;stop-opacity:1;"
         offset="1"
         id="stop9" /></linearGradient><linearGradient
       id="linearGradient28"><stop
         id="stop27"
         offset="0"
         style="stop-color:#33434e;stop-opacity:1;" /><stop
         id="stop28"
         offset="1"
         style="stop-color:#1c222f;stop-opacity:1;" /></linearGradient><linearGradient
       id="linearGradient872"><stop
         style="stop-color:#667885;stop-opacity:1"
         offset="0"
         id="stop868" /><stop
         style="stop-color:#485a6c;stop-opacity:1"
         offset="1"
         id="stop870" /></linearGradient><linearGradient
       x1="24.000002"
       y1="5.8977075"
       x2="24.000002"
       y2="42.102268"
       id="linearGradient3381-5-4"
       xlink:href="#linearGradient3924-2-2-5-8"
       gradientUnits="userSpaceOnUse"
       gradientTransform="matrix(1.4324324,0,0,1.4362832,-2.378381,-2.4707782)" /><linearGradient
       id="linearGradient3924-2-2-5-8"><stop
         id="stop3926-9-4-9-6"
         style="stop-color:#ffffff;stop-opacity:1"
         offset="0" /><stop
         id="stop3928-9-8-6-5"
         style="stop-color:#ffffff;stop-opacity:0.23529412"
         offset="0.08653846" /><stop
         id="stop3930-3-5-1-7"
         style="stop-color:#ffffff;stop-opacity:0.15686275"
         offset="0.91346151" /><stop
         id="stop3932-8-0-4-8"
         style="stop-color:#ffffff;stop-opacity:0.39215687"
         offset="1" /></linearGradient><radialGradient
       cx="4.9929786"
       cy="43.5"
       r="2.5"
       fx="4.9929786"
       fy="43.5"
       id="radialGradient3337-2-2"
       xlink:href="#linearGradient3688-166-749-4-0-3-8"
       gradientUnits="userSpaceOnUse"
       gradientTransform="matrix(2.4045407,0,0,0.99999998,41.985755,15.500001)" /><linearGradient
       id="linearGradient3688-166-749-4-0-3-8"><stop
         id="stop2883-4-0-1-8"
         style="stop-color:#181818;stop-opacity:1"
         offset="0" /><stop
         id="stop2885-9-2-9-6"
         style="stop-color:#181818;stop-opacity:0"
         offset="1" /></linearGradient><radialGradient
       cx="4.9929786"
       cy="43.5"
       r="2.5"
       fx="4.9929786"
       fy="43.5"
       id="radialGradient3339-1-4"
       xlink:href="#linearGradient3688-464-309-9-2-4-2"
       gradientUnits="userSpaceOnUse"
       gradientTransform="matrix(2.4045407,0,0,0.99999998,-22.014244,-102.5)" /><linearGradient
       id="linearGradient3688-464-309-9-2-4-2"><stop
         id="stop2889-7-9-6-9"
         style="stop-color:#181818;stop-opacity:1"
         offset="0" /><stop
         id="stop2891-6-6-1-7"
         style="stop-color:#181818;stop-opacity:0"
         offset="1" /></linearGradient><linearGradient
       id="linearGradient3702-501-757-8-4-1-1"><stop
         id="stop2895-8-9-9-1"
         style="stop-color:#181818;stop-opacity:0"
         offset="0" /><stop
         id="stop2897-7-8-7-7"
         style="stop-color:#181818;stop-opacity:1"
         offset="0.5" /><stop
         id="stop2899-4-5-1-5"
         style="stop-color:#181818;stop-opacity:0"
         offset="1" /></linearGradient><linearGradient
       x1="25.058096"
       y1="47.027729"
       x2="25.058096"
       y2="39.999443"
       id="linearGradient6394"
       xlink:href="#linearGradient3702-501-757-8-4-1-1"
       gradientUnits="userSpaceOnUse"
       gradientTransform="matrix(1.5714286,0,0,0.7142857,-5.7142853,27.928572)" /><linearGradient
       xlink:href="#linearGradient28"
       id="linearGradient856-2-3"
       x1="23.528315"
       y1="6.08318"
       x2="23.528315"
       y2="44.23307"
       gradientUnits="userSpaceOnUse"
       gradientTransform="matrix(1.4102564,0,0,1.4102564,-1.8461748,-3.2564048)" /><inkscape:path-effect
       effect="offset"
       id="path-effect39"
       is_visible="true"
       lpeversion="1.3"
       linejoin_type="miter"
       unit="px"
       offset="-1"
       miter_limit="4"
       attempt_force_join="false"
       update_on_knot_move="true" /><inkscape:path-effect
       effect="offset"
       id="path-effect33"
       is_visible="true"
       lpeversion="1.3"
       linejoin_type="miter"
       unit="px"
       offset="-1"
       miter_limit="4"
       attempt_force_join="false"
       update_on_knot_move="true" /><linearGradient
       id="linearGradient1201"><stop
         id="stop1193"
         style="stop-color:#ffffff;stop-opacity:1"
         offset="0" /><stop
         id="stop1195"
         style="stop-color:#ffffff;stop-opacity:0.23529412"
         offset="0.06781636" /><stop
         id="stop1197"
         style="stop-color:#ffffff;stop-opacity:0.15686275"
         offset="0.93196869" /><stop
         id="stop1199"
         style="stop-color:#ffffff;stop-opacity:0.39215687"
         offset="1" /></linearGradient><radialGradient
       cx="4.9929786"
       cy="43.5"
       r="2.5"
       fx="4.9929786"
       fy="43.5"
       id="radialGradient3013-6"
       xlink:href="#linearGradient3688-166-749-4-0-3-8"
       gradientUnits="userSpaceOnUse"
       gradientTransform="matrix(2.003784,0,0,0.89999994,29.98813,4.8500025)" /><radialGradient
       cx="4.9929786"
       cy="43.5"
       r="2.5"
       fx="4.9929786"
       fy="43.5"
       id="radialGradient3015-1"
       xlink:href="#linearGradient3688-166-749-4-0-3-8"
       gradientUnits="userSpaceOnUse"
       gradientTransform="matrix(2.003784,0,0,0.89999994,-18.01187,-83.149997)" /><linearGradient
       x1="38.999996"
       y1="5.9999938"
       x2="38.999996"
       y2="41.945408"
       id="linearGradient3058-5"
       xlink:href="#linearGradient1201"
       gradientUnits="userSpaceOnUse"
       gradientTransform="translate(74.000004,1.0000062)" /><linearGradient
       xlink:href="#linearGradient3702-501-757-8-4-1-1"
       id="linearGradient1191"
       gradientUnits="userSpaceOnUse"
       x1="25.058096"
       y1="47.027729"
       x2="25.058096"
       y2="39.999443"
       gradientTransform="matrix(1.1428571,0,0,0.6428571,-3.428569,16.035716)" /><linearGradient
       xlink:href="#linearGradient870"
       id="linearGradient930-9-2"
       x1="16.767664"
       y1="2.7676599"
       x2="16.767664"
       y2="29.896721"
       gradientUnits="userSpaceOnUse"
       gradientTransform="matrix(1.444444,0,0,1.444444,74.888913,1.888891)" /><linearGradient
       id="linearGradient870"><stop
         id="stop866"
         offset="0"
         style="stop-color:#273445;stop-opacity:1;" /><stop
         id="stop868-3"
         offset="1"
         style="stop-color:#0e141f;stop-opacity:1;" /></linearGradient><linearGradient
       inkscape:collect="always"
       xlink:href="#linearGradient8"
       id="linearGradient9"
       x1="17"
       y1="18"
       x2="17"
       y2="44"
       gradientUnits="userSpaceOnUse"
       gradientTransform="translate(-1)" /><linearGradient
       inkscape:collect="always"
       xlink:href="#linearGradient8"
       id="linearGradient11"
       x1="33"
       y1="19"
       x2="33"
       y2="44"
       gradientUnits="userSpaceOnUse" /><linearGradient
       inkscape:collect="always"
       xlink:href="#linearGradient8"
       id="linearGradient13"
       x1="51"
       y1="19"
       x2="51"
       y2="44"
       gradientUnits="userSpaceOnUse" /><linearGradient
       inkscape:collect="always"
       xlink:href="#linearGradient23"
       id="linearGradient22"
       x1="8"
       y1="13"
       x2="56"
       y2="13"
       gradientUnits="userSpaceOnUse" /><linearGradient
       inkscape:collect="always"
       xlink:href="#linearGradient23"
       id="linearGradient43"
       gradientUnits="userSpaceOnUse"
       x1="8"
       y1="13"
       x2="56"
       y2="13" /><linearGradient
       inkscape:collect="always"
       xlink:href="#linearGradient23"
       id="linearGradient44"
       gradientUnits="userSpaceOnUse"
       x1="8"
       y1="13"
       x2="56"
       y2="13" /><linearGradient
       inkscape:collect="always"
       xlink:href="#linearGradient23"
       id="linearGradient45"
       gradientUnits="userSpaceOnUse"
       x1="8"
       y1="13"
       x2="56"
       y2="13" /></defs><metadata
     id="metadata6338"><rdf:RDF><cc:Work
         rdf:about=""><dc:format>image/svg+xml</dc:format><dc:type
           rdf:resource="http://purl.org/dc/dcmitype/StillImage" /></cc:Work></rdf:RDF></metadata><rect
     style="color:#000000;display:inline;overflow:visible;visibility:visible;opacity:1;fill:url(#linearGradient856-2-3);fill-rule:nonzero;stroke:none;stroke-width:1;stroke-opacity:0.5;marker:none;enable-background:accumulate"
     id="rect5505-21-1-5"
     y="4.5000019"
     x="4.4999986"
     ry="6"
     rx="6"
     height="55"
     width="55" /><g
     id="g43"
     transform="translate(0,36)"><g
       id="g37"
       style="opacity:0.15;fill:#ffffff;fill-opacity:1;stroke:#ffffff;stroke-width:2;stroke-linecap:round;stroke-linejoin:round;stroke-dasharray:none;stroke-opacity:1"
       transform="translate(0,1)"><path
         style="baseline-shift:baseline;display:inline;overflow:visible;fill:#ffffff;fill-opacity:1;stroke:#ffffff;stroke-width:2;stroke-linecap:round;stroke-linejoin:round;stroke-dasharray:none;stroke-opacity:1;enable-background:accumulate;stop-color:#000000;stop-opacity:1"
         d="M 56,13 H 8"
         id="path36" /><path
         style="baseline-shift:baseline;display:inline;overflow:visible;fill:#ffffff;fill-opacity:1;stroke:#ffffff;stroke-width:2;stroke-linecap:round;stroke-linejoin:round;stroke-dasharray:none;stroke-opacity:1;enable-background:accumulate;stop-color:#000000;stop-opacity:1"
         d="m 8,12 v 2 h 48 v -2 z"
         id="path37" /></g><g
       id="g42"
       style="opacity:1;fill:url(#linearGradient45);fill-opacity:1;stroke:none"><path
         style="baseline-shift:baseline;display:inline;overflow:visible;vector-effect:none;fill:url(#linearGradient43);fill-opacity:1;stroke:none;enable-background:accumulate;stop-color:#000000;stop-opacity:1"
         d="M 56,13 H 8"
         id="path40" /><path
         style="baseline-shift:baseline;display:inline;overflow:visible;vector-effect:none;fill:url(#linearGradient44);fill-opacity:1;stroke:none;enable-background:accumulate;stop-color:#000000;stop-opacity:1"
         d="m 8,12 v 2 h 48 v -2 z"
         id="path42" /></g><path
       style="opacity:0.15;fill:none;fill-opacity:1;stroke:#000000;stroke-width:1;stroke-linecap:butt;stroke-linejoin:round;stroke-dasharray:none;stroke-opacity:1"
       d="M 8,12.5 H 56"
       id="path43" /></g><g
     id="g36"><g
       id="g32"
       style="opacity:0.15;fill:#ffffff;fill-opacity:1;stroke:#ffffff;stroke-width:2;stroke-linecap:round;stroke-linejoin:round;stroke-dasharray:none;stroke-opacity:1"
       transform="translate(0,1)"><path
         style="baseline-shift:baseline;display:inline;overflow:visible;fill:#ffffff;fill-opacity:1;stroke:#ffffff;stroke-width:2;stroke-linecap:round;stroke-linejoin:round;stroke-dasharray:none;stroke-opacity:1;enable-background:accumulate;stop-color:#000000;stop-opacity:1"
         d="M 56,13 H 8"
         id="path30" /><path
         style="baseline-shift:baseline;display:inline;overflow:visible;fill:#ffffff;fill-opacity:1;stroke:#ffffff;stroke-width:2;stroke-linecap:round;stroke-linejoin:round;stroke-dasharray:none;stroke-opacity:1;enable-background:accumulate;stop-color:#000000;stop-opacity:1"
         d="m 8,12 v 2 h 48 v -2 z"
         id="path32" /></g><g
       id="path18"
       style="opacity:1;fill:url(#linearGradient22);fill-opacity:1;stroke:none"><path
         style="baseline-shift:baseline;display:inline;overflow:visible;vector-effect:none;enable-background:accumulate;stop-color:#000000;stop-opacity:1;fill:url(#linearGradient22);fill-opacity:1;stroke:none"
         d="M 56,13 H 8"
         id="path19" /><path
         style="baseline-shift:baseline;display:inline;overflow:visible;vector-effect:none;fill:url(#linearGradient22);enable-background:accumulate;stop-color:#000000;stop-opacity:1;fill-opacity:1;stroke:none"
         d="m 8,12 v 2 h 48 v -2 z"
         id="path21" /></g><path
       style="opacity:0.15;fill:none;fill-opacity:1;stroke:#000000;stroke-width:1;stroke-linecap:butt;stroke-linejoin:round;stroke-dasharray:none;stroke-opacity:1"
       d="M 8,12.5 H 56"
       id="path34" /></g><rect
     style="opacity:0.35;fill:none;stroke:url(#linearGradient3381-5-4);stroke-width:1;stroke-linecap:round;stroke-linejoin:round;stroke-miterlimit:4;stroke-dasharray:none;stroke-dashoffset:0;stroke-opacity:1"
     id="rect6741-5-0-2-3"
     y="5.5"
     x="5.5"
     ry="5"
     height="53"
     width="53"
     rx="5" /><rect
     style="color:#000000;display:inline;overflow:visible;visibility:visible;opacity:0.5;fill:none;fill-opacity:1;fill-rule:nonzero;stroke:#273445;stroke-width:1;stroke-opacity:1;marker:none;enable-background:accumulate"
     id="rect863"
     y="4.5000019"
     x="4.4999986"
     ry="6"
     rx="6"
     height="55"
     width="55" /><path
     style="opacity:0.15;fill:#fafafa;stroke:#fafafa;stroke-width:2;stroke-linecap:round;stroke-linejoin:round;stroke-dasharray:none;stroke-opacity:1"
     d="m 33,59 -8,-10 -8,3 8,-4 13,11 z"
     id="path28"
     sodipodi:nodetypes="cccccc" /><path
     style="opacity:0.15;fill:#fafafa;stroke:#fafafa;stroke-width:2;stroke-linecap:round;stroke-linejoin:round;stroke-dasharray:none;stroke-opacity:1"
     d="m 45,6 v 8 l 5,3 H 45 L 41,23 30,25.947441 40,21 44,16 42,6 Z"
     id="path26"
     sodipodi:nodetypes="cccccccccc" /><path
     style="opacity:1;fill:#1c222f;stroke:none;stroke-linecap:round;stroke-linejoin:round;stroke-opacity:0.501961;fill-opacity:1"
     d="m 45,5 v 8 l 5,3 H 45 L 41,22 30,24.947441 40,20 44,15 42,5 Z"
     id="path11"
     sodipodi:nodetypes="cccccccccc" /><path
     style="opacity:0.15;fill:#fafafa;stroke:#fafafa;stroke-width:2;stroke-linecap:round;stroke-linejoin:round;stroke-dasharray:none;stroke-opacity:1"
     d="m 53,17 h 5 v 2 z"
     id="path27"
     sodipodi:nodetypes="cccc" /><path
     style="opacity:1;fill:#1c222f;fill-opacity:1;stroke:none;stroke-linecap:round;stroke-linejoin:round;stroke-opacity:0.501961"
     d="m 53,16 h 6 v 3 z"
     id="path12"
     sodipodi:nodetypes="cccc" /><path
     style="opacity:1;fill:#0e141f;stroke:none;stroke-linecap:round;stroke-linejoin:round;stroke-opacity:0.501961"
     d="m 34,59 -9,-10 -8,2 8,-4 14,12 z"
     id="path15"
     sodipodi:nodetypes="cccccc" /><path
     style="opacity:0.15;fill:#fafafa;stroke:#fafafa;stroke-linecap:round;stroke-linejoin:round;stroke-opacity:1"
     d="m 15,55 -4,4 h 2.5 z"
     id="path29"
     sodipodi:nodetypes="cccc" /><path
     style="opacity:1;fill:#0e141f;stroke:none;stroke-linecap:round;stroke-linejoin:round;stroke-opacity:0.501961"
     d="m 15,54 -5,5 h 3 z"
     id="path16"
     sodipodi:nodetypes="cccc" /><path
     style="opacity:1;fill:#0e141f;fill-opacity:1;stroke:none;stroke-linecap:round;stroke-linejoin:round;stroke-opacity:0.501961"
     d="m 42,5 2,10 -4,5 -10,5 10,-4 5,-6 5,1 -5,-3 z"
     id="path20"
     sodipodi:nodetypes="ccccccccc" /><path
     style="opacity:1;fill:#0e141f;fill-opacity:1;stroke:none;stroke-linecap:round;stroke-linejoin:round;stroke-opacity:0.501961"
     d="m 53,16 h 6 v 1 z"
     id="path23"
     sodipodi:nodetypes="cccc" /><path
     id="path39"
     style="opacity:0.15;fill:#ffffff;fill-opacity:1;stroke:#ffffff;stroke-width:2;stroke-linecap:round;stroke-linejoin:round;stroke-dasharray:none;stroke-opacity:1"
     d="m 32,27 a 8,8 0 0 0 -8,8 v 1 h 1 14 1 v -1 a 8,8 0 0 0 -8,-8 z m 0,2 a 6,6 0 0 1 5.916016,5 H 26.083984 A 6,6 0 0 1 32,29 Z" /><path
     id="path31"
     style="opacity:1;fill:#abacae;fill-opacity:1;stroke:none;stroke-width:2;stroke-linecap:round;stroke-linejoin:round;stroke-dasharray:none;stroke-opacity:1"
     d="m 32,26 a 8,8 0 0 0 -8,8 v 1 h 1 14 1 v -1 a 8,8 0 0 0 -8,-8 z m 0,2 a 6,6 0 0 1 5.916016,5 H 26.083984 A 6,6 0 0 1 32,28 Z" /><path
     id="path52"
     style="opacity:1;fill:url(#linearGradient11);fill-opacity:1;stroke:none;stroke-width:2;stroke-linecap:round;stroke-linejoin:round;stroke-dasharray:none;stroke-opacity:1"
     d="m 32,27 a 8,8 0 0 0 -8,8 h 1 14 1 a 8,8 0 0 0 -8,-8 z m 0,1 a 6,6 0 0 1 5.916016,5 H 37.65625 a 6,6 0 0 1 0.259766,1 H 26.083984 A 6,6 0 0 1 26.34375,33 H 26.083984 A 6,6 0 0 1 32,28 Z" /><g
     id="g34"><path
       id="path41"
       style="opacity:0.15;fill:#ffffff;fill-opacity:1;stroke:#ffffff;stroke-linecap:round;stroke-linejoin:round;stroke-opacity:1"
       d="m 16,19 a 8,4 0 0 0 -8,4 8,2 0 0 1 8,-2 8,2 0 0 1 8,2 8,4 0 0 0 -8,-4 z m 0,2 -0.333984,4.013672 A 4,4 0 0 0 12,29 4,4 0 0 0 15.009766,32.875 L 14,45 h 4 L 16.990234,32.875 A 4,4 0 0 0 20,29 4,4 0 0 0 16.333984,25.013672 Z m 0,6 A 2,2 0 0 1 16.261719,27.01758 2,2 0 0 1 18,29 2,2 0 0 1 16.818359,30.824219 2,2 0 0 1 16,31 2,2 0 0 1 15.181641,30.824219 2,2 0 0 1 14,29 2,2 0 0 1 15.738281,27.017578 2,2 0 0 1 16,27 Z" /><path
       id="path17"
       style="opacity:1;fill:#abacae;fill-opacity:1;stroke:none;stroke-linecap:round;stroke-linejoin:round;stroke-opacity:0.501961"
       d="m 16,18 a 8,4 0 0 0 -8,4 8,2 0 0 1 8,-2 8,2 0 0 1 8,2 8,4 0 0 0 -8,-4 z m 0,2 -0.333984,4.013672 a 4,4 0 0 0 -1.949219,0.703125 L 12,23 v 3.5 L 9,28 12,29.5 V 33 l 1.716797,-1.716797 A 4,4 0 0 0 15.009766,31.875 L 14,44 h 4 L 16.990234,31.875 a 4,4 0 0 0 1.292969,-0.591797 L 20,33 V 29.5 L 23,28 20,26.5 V 23 l -1.716797,1.716797 a 4,4 0 0 0 -1.949219,-0.703125 z m 0,6 a 2,2 0 0 1 0.261719,0.01758 A 2,2 0 0 1 18,28 2,2 0 0 1 16.818359,29.824219 2,2 0 0 1 16,30 2,2 0 0 1 15.181641,29.824219 2,2 0 0 1 14,28 2,2 0 0 1 15.738281,26.017578 2,2 0 0 1 16,26 Z" /><path
       id="path3"
       style="opacity:1;fill:url(#linearGradient9);fill-opacity:1;stroke:none;stroke-linecap:round;stroke-linejoin:round;stroke-opacity:0.501961"
       d="M 16,19 A 8,4 0 0 0 9.072266,21 8,2 0 0 1 16,20 8,2 0 0 1 22.927734,21 8,4 0 0 0 16,19 Z m 0,1 -0.08398,1 A 8,2 0 0 1 16,21 a 8,2 0 0 1 0.08398,0 z m 0,1 -0.333984,4.013672 a 4,4 0 0 0 -1.949219,0.703125 L 12,24 v 2.5 1 l -2,1 2,1 v 1 2.5 l 1.716797,-1.716797 A 4,4 0 0 0 15.009766,31.875 l -0.08203,0.978516 a 4,4 0 0 0 0.08203,0.02148 L 14.083984,44 h 3.832032 L 16.990234,32.875 a 4,4 0 0 0 0.08203,-0.02148 L 16.990234,31.875 a 4,4 0 0 0 1.292969,-0.591797 L 20,33 v -2.5 -1 l 2,-1 -2,-1 v -1 -2.5 l -1.716797,1.716797 a 4,4 0 0 0 -1.949219,-0.703125 z m 0,5 a 2,2 0 0 1 0.261719,0.01758 A 2,2 0 0 1 18,28 a 2,2 0 0 1 -0.06445,0.503906 2,2 0 0 1 0,0.002 A 2,2 0 0 1 18,29 2,2 0 0 1 16.818359,30.824219 2,2 0 0 1 16,31 2,2 0 0 1 15.181641,30.824219 2,2 0 0 1 14,29 a 2,2 0 0 1 0.06445,-0.494141 2,2 0 0 1 0,-0.002 A 2,2 0 0 1 14,28 2,2 0 0 1 15.738281,26.017578 2,2 0 0 1 16,26 Z" /><path
       id="path13"
       style="opacity:0.06;fill:#000000;fill-opacity:1;stroke:none;stroke-linecap:round;stroke-linejoin:round;stroke-opacity:0.501961"
       d="m 16,18 a 8,4 0 0 0 -8,4 8,2 0 0 1 8,-2 8,2 0 0 1 8,2 8,4 0 0 0 -8,-4 z m 0,2 -0.333984,4.013672 a 4,4 0 0 0 -1.949219,0.703125 L 12,23 v 3.5 L 9,28 12,29.5 V 33 l 1.716797,-1.716797 A 4,4 0 0 0 15.009766,31.875 L 14,44 h 4 L 16.990234,31.875 a 4,4 0 0 0 1.292969,-0.591797 L 20,33 V 29.5 L 23,28 20,26.5 V 23 l -1.716797,1.716797 a 4,4 0 0 0 -1.949219,-0.703125 z m 0,6 a 2,2 0 0 1 0.261719,0.01758 A 2,2 0 0 1 18,28 2,2 0 0 1 16.818359,29.824219 2,2 0 0 1 16,30 2,2 0 0 1 15.181641,29.824219 2,2 0 0 1 14,28 2,2 0 0 1 15.738281,26.017578 2,2 0 0 1 16,26 Z" /></g><g
     id="g35"><path
       id="path38"
       style="opacity:0.15;fill:#ffffff;fill-opacity:1;stroke:#ffffff;stroke-width:2;stroke-linecap:round;stroke-linejoin:round;stroke-dasharray:none;stroke-opacity:1"
       d="m 50,23 a 4,4 0 0 0 -4,4 4,4 0 0 0 3.720703,3.990234 l -1.316406,5.267578 c -0.39285,-0.318387 -0.749074,-0.593558 -1.15625,-0.914062 -0.818231,-0.64406 -1.538096,-1.264422 -2.550781,-1.425781 -0.506343,-0.08068 -1.220824,0.100971 -1.613282,0.580078 -0.392457,0.479106 -0.495735,1.034898 -0.527343,1.683594 -0.06322,1.297391 0.236256,3.148326 0.974609,6.064453 L 43.720703,43 H 56 v -1 c 0,-2.533333 -0.125025,-5.561937 -0.443359,-8.363281 -0.306163,-2.694224 -0.757135,-5.15034 -1.564453,-6.88086 A 4,4 0 0 0 50,23 Z m 0,2 A 2,2 0 0 1 52,26.986328 2,2 0 0 1 52,27 1,1 0 0 0 52,27.013672 2,2 0 0 1 50,29 2,2 0 0 1 48,27 2,2 0 0 1 50,25 Z m 2.878906,4.775391 c 0.283527,1.181645 0.520175,2.598238 0.689453,4.08789 0.268977,2.366998 0.351313,4.874616 0.378907,7.136719 H 45.34375 c -0.508625,-2.19753 -0.825028,-3.98256 -0.789062,-4.720703 0.01027,-0.21071 0.01384,-0.170332 0.03711,-0.253906 0.228709,0.09885 0.757329,0.369072 1.419922,0.890625 0.760066,0.598277 1.598884,1.334164 2.416015,1.904296 l 1.189454,0.830079 2.283203,-9.13086 h 0.002 a 4,4 0 0 0 0.976562,-0.74414 z" /><path
       id="path4"
       style="baseline-shift:baseline;display:inline;overflow:visible;vector-effect:none;fill:#abacae;stroke-linecap:round;enable-background:accumulate;stop-color:#000000;stop-opacity:1;opacity:1"
       d="M 50 22 C 47.802706 22 46 23.802706 46 26 C 46 28.103631 47.651727 29.845549 49.720703 29.990234 L 48.410156 35.236328 C 47.916361 34.828433 47.415155 34.394266 46.941406 34.050781 C 46.069932 33.418931 45.353616 32.838012 44.271484 32.898438 C 43.730419 32.928647 43.106181 33.342484 42.863281 33.857422 C 42.620381 34.37236 42.594759 34.905263 42.636719 35.548828 C 42.720639 36.835958 43.160474 38.631687 44.050781 41.314453 L 44.277344 42 L 56 42 L 56 35.164062 C 56.010511 35.151312 56.020928 35.137903 56.03125 35.125 C 56.714088 34.271453 57 33.166667 57 32 L 57 31.78125 L 53.908203 25.080078 A 1 1 0 0 0 53.876953 25.017578 C 53.435436 23.289796 51.858868 22 50 22 z M 50 24 C 51.116414 24 52 24.883586 52 26 C 52 26.081529 51.995499 26.161443 51.986328 26.240234 L 49.550781 24.048828 C 49.69474 24.01666 49.84538 24 50 24 z M 48.082031 25.421875 L 50.777344 27.845703 C 50.53925 27.944257 50.276563 28 50 28 C 48.883586 28 48 27.116414 48 26 C 48 25.798203 48.028137 25.604615 48.082031 25.421875 z M 52 29.458984 L 52 36.5 L 53 36.5 C 53.346888 36.5 53.682102 36.459082 54 36.382812 L 54 40 L 45.777344 40 C 45.129632 37.928393 44.685441 36.225157 44.632812 35.417969 C 44.616932 35.174402 44.639117 35.166102 44.654297 35.046875 C 44.809763 35.121105 45.151468 35.223219 45.767578 35.669922 C 46.534029 36.225627 47.447021 37.005918 48.357422 37.767578 L 49.582031 38.791016 L 51.902344 29.513672 C 51.935062 29.495807 51.967834 29.477729 52 29.458984 z M 54 30.054688 L 54.960938 32.136719 C 54.932572 32.883541 54.762772 33.507473 54.46875 33.875 C 54.367547 34.001503 54.127024 33.983919 54 34.074219 L 54 30.054688 z " /><path
       id="path7"
       style="baseline-shift:baseline;display:inline;overflow:visible;vector-effect:none;fill:url(#linearGradient13);stroke-linecap:round;enable-background:accumulate;stop-color:#000000;stop-opacity:1;opacity:1"
       d="M 50 23 C 47.971913 23 46.279805 24.535713 46.03125 26.5 C 46.268284 28.373525 47.818175 29.857189 49.720703 29.990234 L 49.476562 30.964844 C 49.557079 30.9755 49.638802 30.984507 49.720703 30.990234 L 48.410156 36.236328 C 47.916361 35.828433 47.415155 35.394266 46.941406 35.050781 C 46.069932 34.418931 45.353616 33.838012 44.271484 33.898438 C 43.730419 33.928647 43.106181 34.342484 42.863281 34.857422 C 42.742719 35.11301 42.676341 35.372663 42.644531 35.648438 C 42.744137 36.928224 43.183292 38.700442 44.050781 41.314453 L 44.277344 42 L 56 42 L 56 36.164062 L 56 35.164062 C 56.010511 35.151312 56.020928 35.137903 56.03125 35.125 C 56.57525 34.445001 56.866608 33.606295 56.962891 32.703125 C 56.962959 32.702486 56.962823 32.70181 56.962891 32.701172 L 53.908203 26.080078 A 1 1 0 0 0 53.876953 26.017578 C 53.435436 24.289796 51.858868 23 50 23 z M 50 24 C 51.116414 24 52 24.883586 52 26 C 52 26.081529 51.995499 26.161443 51.986328 26.240234 L 51.755859 26.033203 C 51.911169 26.318535 52 26.647963 52 27 C 52 27.08153 51.995498 27.161443 51.986328 27.240234 L 49.550781 25.048828 C 49.69474 25.01666 49.84538 25 50 25 C 50.277128 25 50.540815 25.05536 50.779297 25.154297 L 49.550781 24.048828 C 49.69474 24.01666 49.84538 24 50 24 z M 48.082031 25.421875 L 50.777344 27.845703 C 50.53925 27.944257 50.276563 28 50 28 C 49.942408 28 49.886342 27.996801 49.830078 27.992188 L 50.777344 28.845703 C 50.53925 28.944257 50.276563 29 50 29 C 48.883586 29 48 28.116414 48 27 C 48 26.826328 48.020384 26.657876 48.060547 26.498047 C 48.020679 26.338919 48 26.172675 48 26 C 48 25.798203 48.028137 25.604615 48.082031 25.421875 z M 52 29.458984 L 52 30.458984 L 52 36.5 L 53 36.5 C 53.346888 36.5 53.682102 36.459083 54 36.382812 L 54 37.382812 L 54 40 L 54 41 L 45.777344 41 C 45.129632 38.928393 44.685441 37.225157 44.632812 36.417969 C 44.616932 36.174402 44.639117 36.166102 44.654297 36.046875 C 44.674053 36.056308 44.696705 36.067142 44.722656 36.078125 C 44.67497 35.818575 44.64442 35.596001 44.632812 35.417969 C 44.616932 35.174402 44.639117 35.166102 44.654297 35.046875 C 44.809763 35.121105 45.151468 35.223219 45.767578 35.669922 C 46.534029 36.225627 47.447021 37.005918 48.357422 37.767578 L 49.582031 38.791016 L 51.902344 29.513672 C 51.935062 29.495807 51.967834 29.477729 52 29.458984 z M 54 30.054688 L 54.960938 32.136719 C 54.950072 32.42278 54.918587 32.691096 54.867188 32.933594 L 54.960938 33.136719 C 54.932572 33.883541 54.762772 34.507473 54.46875 34.875 C 54.367547 35.001503 54.127024 34.983919 54 35.074219 L 54 34.074219 L 54 31.054688 L 54 30.054688 z " /><path
       id="path14"
       style="baseline-shift:baseline;display:inline;overflow:visible;vector-effect:none;fill:#000000;stroke-linecap:round;enable-background:accumulate;stop-color:#000000;stop-opacity:1;opacity:0.15;fill-opacity:1"
       d="M 50 22 C 47.802706 22 46 23.802706 46 26 C 46 28.103631 47.651727 29.845549 49.720703 29.990234 L 48.410156 35.236328 C 47.916361 34.828433 47.415155 34.394266 46.941406 34.050781 C 46.069932 33.418931 45.353616 32.838012 44.271484 32.898438 C 43.730419 32.928647 43.106181 33.342484 42.863281 33.857422 C 42.620381 34.37236 42.594759 34.905263 42.636719 35.548828 C 42.720639 36.835958 43.160474 38.631687 44.050781 41.314453 L 44.277344 42 L 56 42 L 56 35.164062 C 56.010511 35.151312 56.020928 35.137903 56.03125 35.125 C 56.714088 34.271453 57 33.166667 57 32 L 57 31.78125 L 53.908203 25.080078 A 1 1 0 0 0 53.876953 25.017578 C 53.435436 23.289796 51.858868 22 50 22 z M 50 24 C 51.116414 24 52 24.883586 52 26 C 52 26.081529 51.995499 26.161443 51.986328 26.240234 L 49.550781 24.048828 C 49.69474 24.01666 49.84538 24 50 24 z M 48.082031 25.421875 L 50.777344 27.845703 C 50.53925 27.944257 50.276563 28 50 28 C 48.883586 28 48 27.116414 48 26 C 48 25.798203 48.028137 25.604615 48.082031 25.421875 z M 52 29.458984 L 52 36.5 L 53 36.5 C 53.346888 36.5 53.682102 36.459082 54 36.382812 L 54 40 L 45.777344 40 C 45.129632 37.928393 44.685441 36.225157 44.632812 35.417969 C 44.616932 35.174402 44.639117 35.166102 44.654297 35.046875 C 44.809763 35.121105 45.151468 35.223219 45.767578 35.669922 C 46.534029 36.225627 47.447021 37.005918 48.357422 37.767578 L 49.582031 38.791016 L 51.902344 29.513672 C 51.935062 29.495807 51.967834 29.477729 52 29.458984 z M 54 30.054688 L 54.960938 32.136719 C 54.932572 32.883541 54.762772 33.507473 54.46875 33.875 C 54.367547 34.001503 54.127024 33.983919 54 34.074219 L 54 30.054688 z " /></g></svg>
