<?xml version="1.0" encoding="UTF-8" standalone="no"?>
<svg
   version="1.1"
   width="64"
   height="64"
   id="svg6333"
   sodipodi:docname="64.svg"
   inkscape:version="1.4.3 (0d15f75042, 2025-12-25)"
   xml:space="preserve"
   xmlns:inkscape="http://www.inkscape.org/namespaces/inkscape"
   xmlns:sodipodi="http://sodipodi.sourceforge.net/DTD/sodipodi-0.dtd"
   xmlns:xlink="http://www.w3.org/1999/xlink"
   xmlns="http://www.w3.org/2000/svg"
   xmlns:svg="http://www.w3.org/2000/svg"
   xmlns:rdf="http://www.w3.org/1999/02/22-rdf-syntax-ns#"
   xmlns:cc="http://creativecommons.org/ns#"
   xmlns:dc="http://purl.org/dc/elements/1.1/"><sodipodi:namedview
     pagecolor="#ffffff"
     bordercolor="#666666"
     borderopacity="1"
     objecttolerance="10"
     gridtolerance="10"
     guidetolerance="10"
     inkscape:pageopacity="0"
     inkscape:pageshadow="2"
     inkscape:window-width="2560"
     inkscape:window-height="1373"
     id="namedview38"
     showgrid="false"
     inkscape:zoom="15.75"
     inkscape:cx="32"
     inkscape:cy="32"
     inkscape:window-x="0"
     inkscape:window-y="30"
     inkscape:window-maximized="1"
     inkscape:current-layer="svg6333"
     inkscape:document-rotation="0"
     inkscape:showpageshadow="2"
     inkscape:pagecheckerboard="0"
     inkscape:deskcolor="#d1d1d1"
     showguides="false"><inkscape:grid
       type="xygrid"
       id="grid858"
       empspacing="4"
       originx="0"
       originy="0"
       spacingy="1"
       spacingx="1"
       units="px"
       visible="false" /><inkscape:grid
       type="xygrid"
       id="grid860"
       empspacing="2"
       spacingy="0.5"
       spacingx="0.5"
       dotted="true"
       originx="0"
       originy="0"
       units="px"
       visible="false" /><inkscape:page
       x="0"
       y="0"
       width="64"
       height="64"
       id="page1"
       margin="0"
       bleed="0" /></sodipodi:namedview><defs
     id="defs6335"><linearGradient
       id="linearGradient28"><stop
         id="stop27"
         offset="0"
         style="stop-color:#485a6c;stop-opacity:1;" /><stop
         id="stop28"
         offset="1"
         style="stop-color:#273445;stop-opacity:1;" /></linearGradient><linearGradient
       id="linearGradient872"><stop
         style="stop-color:#667885;stop-opacity:1"
         offset="0"
         id="stop868" /><stop
         style="stop-color:#485a6c;stop-opacity:1"
         offset="1"
         id="stop870" /></linearGradient><linearGradient
       x1="24.000002"
       y1="5.8977075"
       x2="24.000002"
       y2="42.102268"
       id="linearGradient3381-5-4"
       xlink:href="#linearGradient3924-2-2-5-8"
       gradientUnits="userSpaceOnUse"
       gradientTransform="matrix(1.4324324,0,0,1.4362832,-2.378381,-2.4707782)" /><linearGradient
       id="linearGradient3924-2-2-5-8"><stop
         id="stop3926-9-4-9-6"
         style="stop-color:#ffffff;stop-opacity:1"
         offset="0" /><stop
         id="stop3928-9-8-6-5"
         style="stop-color:#ffffff;stop-opacity:0.23529412"
         offset="0.08653846" /><stop
         id="stop3930-3-5-1-7"
         style="stop-color:#ffffff;stop-opacity:0.15686275"
         offset="0.91346151" /><stop
         id="stop3932-8-0-4-8"
         style="stop-color:#ffffff;stop-opacity:0.39215687"
         offset="1" /></linearGradient><radialGradient
       cx="4.9929786"
       cy="43.5"
       r="2.5"
       fx="4.9929786"
       fy="43.5"
       id="radialGradient3337-2-2"
       xlink:href="#linearGradient3688-166-749-4-0-3-8"
       gradientUnits="userSpaceOnUse"
       gradientTransform="matrix(2.4045407,0,0,0.99999998,41.985755,15.500001)" /><linearGradient
       id="linearGradient3688-166-749-4-0-3-8"><stop
         id="stop2883-4-0-1-8"
         style="stop-color:#181818;stop-opacity:1"
         offset="0" /><stop
         id="stop2885-9-2-9-6"
         style="stop-color:#181818;stop-opacity:0"
         offset="1" /></linearGradient><radialGradient
       cx="4.9929786"
       cy="43.5"
       r="2.5"
       fx="4.9929786"
       fy="43.5"
       id="radialGradient3339-1-4"
       xlink:href="#linearGradient3688-464-309-9-2-4-2"
       gradientUnits="userSpaceOnUse"
       gradientTransform="matrix(2.4045407,0,0,0.99999998,-22.014244,-102.5)" /><linearGradient
       id="linearGradient3688-464-309-9-2-4-2"><stop
         id="stop2889-7-9-6-9"
         style="stop-color:#181818;stop-opacity:1"
         offset="0" /><stop
         id="stop2891-6-6-1-7"
         style="stop-color:#181818;stop-opacity:0"
         offset="1" /></linearGradient><linearGradient
       id="linearGradient3702-501-757-8-4-1-1"><stop
         id="stop2895-8-9-9-1"
         style="stop-color:#181818;stop-opacity:0"
         offset="0" /><stop
         id="stop2897-7-8-7-7"
         style="stop-color:#181818;stop-opacity:1"
         offset="0.5" /><stop
         id="stop2899-4-5-1-5"
         style="stop-color:#181818;stop-opacity:0"
         offset="1" /></linearGradient><linearGradient
       x1="25.058096"
       y1="47.027729"
       x2="25.058096"
       y2="39.999443"
       id="linearGradient6394"
       xlink:href="#linearGradient3702-501-757-8-4-1-1"
       gradientUnits="userSpaceOnUse"
       gradientTransform="matrix(1.5714286,0,0,0.7142857,-5.7142853,27.928572)" /><linearGradient
       xlink:href="#linearGradient28"
       id="linearGradient856-2-3"
       x1="23.528315"
       y1="6.08318"
       x2="23.528315"
       y2="44.23307"
       gradientUnits="userSpaceOnUse"
       gradientTransform="matrix(1.4102564,0,0,1.4102564,-1.8461748,-3.2564048)" /><inkscape:path-effect
       effect="offset"
       id="path-effect39"
       is_visible="true"
       lpeversion="1.3"
       linejoin_type="miter"
       unit="px"
       offset="-1"
       miter_limit="4"
       attempt_force_join="false"
       update_on_knot_move="true" /><inkscape:path-effect
       effect="offset"
       id="path-effect33"
       is_visible="true"
       lpeversion="1.3"
       linejoin_type="miter"
       unit="px"
       offset="-1"
       miter_limit="4"
       attempt_force_join="false"
       update_on_knot_move="true" /><linearGradient
       id="linearGradient1201"><stop
         id="stop1193"
         style="stop-color:#ffffff;stop-opacity:1"
         offset="0" /><stop
         id="stop1195"
         style="stop-color:#ffffff;stop-opacity:0.23529412"
         offset="0.06781636" /><stop
         id="stop1197"
         style="stop-color:#ffffff;stop-opacity:0.15686275"
         offset="0.93196869" /><stop
         id="stop1199"
         style="stop-color:#ffffff;stop-opacity:0.39215687"
         offset="1" /></linearGradient><radialGradient
       cx="4.9929786"
       cy="43.5"
       r="2.5"
       fx="4.9929786"
       fy="43.5"
       id="radialGradient3013-6"
       xlink:href="#linearGradient3688-166-749-4-0-3-8"
       gradientUnits="userSpaceOnUse"
       gradientTransform="matrix(2.003784,0,0,0.89999994,29.98813,4.8500025)" /><radialGradient
       cx="4.9929786"
       cy="43.5"
       r="2.5"
       fx="4.9929786"
       fy="43.5"
       id="radialGradient3015-1"
       xlink:href="#linearGradient3688-166-749-4-0-3-8"
       gradientUnits="userSpaceOnUse"
       gradientTransform="matrix(2.003784,0,0,0.89999994,-18.01187,-83.149997)" /><linearGradient
       x1="38.999996"
       y1="5.9999938"
       x2="38.999996"
       y2="41.945408"
       id="linearGradient3058-5"
       xlink:href="#linearGradient1201"
       gradientUnits="userSpaceOnUse"
       gradientTransform="translate(74.000004,1.0000062)" /><linearGradient
       xlink:href="#linearGradient3702-501-757-8-4-1-1"
       id="linearGradient1191"
       gradientUnits="userSpaceOnUse"
       x1="25.058096"
       y1="47.027729"
       x2="25.058096"
       y2="39.999443"
       gradientTransform="matrix(1.1428571,0,0,0.6428571,-3.428569,16.035716)" /><linearGradient
       xlink:href="#linearGradient870"
       id="linearGradient930-9-2"
       x1="16.767664"
       y1="2.7676599"
       x2="16.767664"
       y2="29.896721"
       gradientUnits="userSpaceOnUse"
       gradientTransform="matrix(1.444444,0,0,1.444444,74.888913,1.888891)" /><linearGradient
       id="linearGradient870"><stop
         id="stop866"
         offset="0"
         style="stop-color:#273445;stop-opacity:1;" /><stop
         id="stop868-3"
         offset="1"
         style="stop-color:#0e141f;stop-opacity:1;" /></linearGradient></defs><metadata
     id="metadata6338"><rdf:RDF><cc:Work
         rdf:about=""><dc:format>image/svg+xml</dc:format><dc:type
           rdf:resource="http://purl.org/dc/dcmitype/StillImage" /></cc:Work></rdf:RDF></metadata><rect
     style="color:#000000;display:inline;overflow:visible;visibility:visible;opacity:1;fill:url(#linearGradient856-2-3);fill-rule:nonzero;stroke:none;stroke-width:1;stroke-opacity:0.5;marker:none;enable-background:accumulate"
     id="rect5505-21-1-5"
     y="4.5000019"
     x="4.4999986"
     ry="6"
     rx="6"
     height="55"
     width="55" /><rect
     style="opacity:0.35;fill:none;stroke:url(#linearGradient3381-5-4);stroke-width:1;stroke-linecap:round;stroke-linejoin:round;stroke-miterlimit:4;stroke-dasharray:none;stroke-dashoffset:0;stroke-opacity:1"
     id="rect6741-5-0-2-3"
     y="5.5"
     x="5.5"
     ry="5"
     height="53"
     width="53"
     rx="5" /><rect
     style="color:#000000;display:inline;overflow:visible;visibility:visible;opacity:0.5;fill:none;fill-opacity:1;fill-rule:nonzero;stroke:#273445;stroke-width:1;stroke-opacity:1;marker:none;enable-background:accumulate"
     id="rect863"
     y="4.5000019"
     x="4.4999986"
     ry="6"
     rx="6"
     height="55"
     width="55" /><path
     style="opacity:0.15;fill:#fafafa;stroke:#fafafa;stroke-width:2;stroke-linecap:round;stroke-linejoin:round;stroke-dasharray:none;stroke-opacity:1"
     d="m 33,59 -8,-6 -7,1 7,-2 13,7 z"
     id="path28"
     sodipodi:nodetypes="cccccc" /><path
     style="opacity:0.15;fill:#fafafa;stroke:#fafafa;stroke-width:2;stroke-linecap:round;stroke-linejoin:round;stroke-dasharray:none;stroke-opacity:1"
     d="m 45,6 v 8 l 5,3 H 45 L 41,23 30,25.947441 40,21 44,16 42,6 Z"
     id="path26"
     sodipodi:nodetypes="cccccccccc" /><path
     style="opacity:1;fill:#273445;stroke:none;stroke-linecap:round;stroke-linejoin:round;stroke-opacity:0.501961"
     d="m 45,5 v 8 l 5,3 H 45 L 41,22 30,24.947441 40,20 44,15 42,5 Z"
     id="path11"
     sodipodi:nodetypes="cccccccccc" /><path
     style="opacity:0.15;fill:#fafafa;stroke:#fafafa;stroke-width:2;stroke-linecap:round;stroke-linejoin:round;stroke-dasharray:none;stroke-opacity:1"
     d="m 53,17 h 5 v 2 z"
     id="path27"
     sodipodi:nodetypes="cccc" /><path
     style="opacity:1;fill:#273445;fill-opacity:1;stroke:none;stroke-linecap:round;stroke-linejoin:round;stroke-opacity:0.501961"
     d="m 53,16 h 6 v 3 z"
     id="path12"
     sodipodi:nodetypes="cccc" /><path
     style="opacity:1;fill:#0e141f;stroke:none;stroke-linecap:round;stroke-linejoin:round;stroke-opacity:0.501961"
     d="m 34,59 -9,-7 -7,1 7,-2 14,8 z"
     id="path15"
     sodipodi:nodetypes="cccccc" /><path
     style="opacity:0.15;fill:#fafafa;stroke:#fafafa;stroke-linecap:round;stroke-linejoin:round;stroke-opacity:1"
     d="m 15,55 -4,4 h 2.5 z"
     id="path29"
     sodipodi:nodetypes="cccc" /><path
     style="opacity:1;fill:#0e141f;stroke:none;stroke-linecap:round;stroke-linejoin:round;stroke-opacity:0.501961"
     d="m 15,54 -5,5 h 3 z"
     id="path16"
     sodipodi:nodetypes="cccc" /><path
     id="path41"
     style="opacity:0.15;fill:#ffffff;fill-opacity:1;stroke:#ffffff;stroke-linecap:round;stroke-linejoin:round;stroke-opacity:1"
     d="m 17,19 a 8,4 0 0 0 -8,4 8,2 0 0 1 8,-2 8,2 0 0 1 8,2 8,4 0 0 0 -8,-4 z m 0,2 -0.333984,4.013672 A 4,4 0 0 0 13,29 4,4 0 0 0 16.009766,32.875 L 15,45 h 4 L 17.990234,32.875 A 4,4 0 0 0 21,29 4,4 0 0 0 17.333984,25.013672 Z m 0,6 A 2,2 0 0 1 17.261719,27.01758 2,2 0 0 1 19,29 2,2 0 0 1 17.818359,30.824219 2,2 0 0 1 17,31 2,2 0 0 1 16.181641,30.824219 2,2 0 0 1 15,29 2,2 0 0 1 16.738281,27.017578 2,2 0 0 1 17,27 Z" /><path
     id="path17"
     style="opacity:1;fill:#cfa25e;stroke:none;stroke-linecap:round;stroke-linejoin:round;stroke-opacity:0.501961"
     d="m 17,18 a 8,4 0 0 0 -8,4 8,2 0 0 1 8,-2 8,2 0 0 1 8,2 8,4 0 0 0 -8,-4 z m 0,2 -0.333984,4.013672 A 4,4 0 0 0 13,28 4,4 0 0 0 16.009766,31.875 L 15,44 h 4 L 17.990234,31.875 A 4,4 0 0 0 21,28 4,4 0 0 0 17.333984,24.013672 Z m 0,6 A 2,2 0 0 1 17.261719,26.01758 2,2 0 0 1 19,28 2,2 0 0 1 17.818359,29.824219 2,2 0 0 1 17,30 2,2 0 0 1 16.181641,29.824219 2,2 0 0 1 15,28 2,2 0 0 1 16.738281,26.017578 2,2 0 0 1 17,26 Z" /><path
     style="opacity:1;fill:#0e141f;fill-opacity:1;stroke:none;stroke-linecap:round;stroke-linejoin:round;stroke-opacity:0.501961"
     d="m 42,5 2,10 -4,5 -10,5 10,-4 5,-6 5,1 -5,-3 z"
     id="path20"
     sodipodi:nodetypes="ccccccccc" /><path
     style="opacity:1;fill:#0e141f;fill-opacity:1;stroke:none;stroke-linecap:round;stroke-linejoin:round;stroke-opacity:0.501961"
     d="m 53,16 h 6 v 1 z"
     id="path23"
     sodipodi:nodetypes="cccc" /><path
     style="opacity:1;fill:#000000;stroke:none;stroke-linecap:round;stroke-linejoin:round;stroke-opacity:0.501961"
     d="m 18,53 7,-2 14,8 H 36 L 25,52 Z"
     id="path25"
     sodipodi:nodetypes="cccccc" /><path
     id="path39"
     style="opacity:0.15;fill:#ffffff;fill-opacity:1;stroke:#ffffff;stroke-width:2;stroke-linecap:round;stroke-linejoin:round;stroke-dasharray:none;stroke-opacity:1"
     d="m 32,27 a 8,8 0 0 0 -8,8 v 1 h 1 14 1 v -1 a 8,8 0 0 0 -8,-8 z m 0,2 a 6,6 0 0 1 5.916016,5 H 26.083984 A 6,6 0 0 1 32,29 Z" /><path
     id="path31"
     style="opacity:1;fill:#cfa25e;fill-opacity:1;stroke:none;stroke-width:2;stroke-linecap:round;stroke-linejoin:round;stroke-dasharray:none;stroke-opacity:1"
     d="m 32,26 a 8,8 0 0 0 -8,8 v 1 h 1 14 1 v -1 a 8,8 0 0 0 -8,-8 z m 0,2 a 6,6 0 0 1 5.916016,5 H 26.083984 A 6,6 0 0 1 32,28 Z" /><path
     id="path38"
     style="opacity:0.15;fill:#ffffff;fill-opacity:1;stroke:#ffffff;stroke-width:2;stroke-linecap:round;stroke-linejoin:round;stroke-dasharray:none;stroke-opacity:1"
     d="m 50,23 a 4,4 0 0 0 -4,4 4,4 0 0 0 3.720703,3.990234 l -1.316406,5.267578 c -0.39285,-0.318387 -0.749074,-0.593558 -1.15625,-0.914062 -0.818231,-0.64406 -1.538096,-1.264422 -2.550781,-1.425781 -0.506343,-0.08068 -1.220824,0.100971 -1.613282,0.580078 -0.392457,0.479106 -0.495735,1.034898 -0.527343,1.683594 -0.06322,1.297391 0.236256,3.148326 0.974609,6.064453 L 43.720703,43 H 56 v -1 c 0,-2.533333 -0.125025,-5.561937 -0.443359,-8.363281 -0.306163,-2.694224 -0.757135,-5.15034 -1.564453,-6.88086 A 4,4 0 0 0 50,23 Z m 0,2 A 2,2 0 0 1 52,26.986328 2,2 0 0 1 52,27 1,1 0 0 0 52,27.013672 2,2 0 0 1 50,29 2,2 0 0 1 48,27 2,2 0 0 1 50,25 Z m 2.878906,4.775391 c 0.283527,1.181645 0.520175,2.598238 0.689453,4.08789 0.268977,2.366998 0.351313,4.874616 0.378907,7.136719 H 45.34375 c -0.508625,-2.19753 -0.825028,-3.98256 -0.789062,-4.720703 0.01027,-0.21071 0.01384,-0.170332 0.03711,-0.253906 0.228709,0.09885 0.757329,0.369072 1.419922,0.890625 0.760066,0.598277 1.598884,1.334164 2.416015,1.904296 l 1.189454,0.830079 2.283203,-9.13086 h 0.002 a 4,4 0 0 0 0.976562,-0.74414 z" /><path
     id="path34"
     style="opacity:1;fill:#cfa25e;fill-opacity:1;stroke:none;stroke-width:2;stroke-linecap:round;stroke-linejoin:round;stroke-dasharray:none;stroke-opacity:1"
     d="m 50,22 a 4,4 0 0 0 -4,4 4,4 0 0 0 3.720703,3.990234 l -1.316406,5.267578 c -0.39285,-0.318387 -0.749074,-0.593558 -1.15625,-0.914062 -0.818231,-0.64406 -1.538096,-1.264422 -2.550781,-1.425781 -0.506343,-0.08068 -1.220824,0.100971 -1.613282,0.580078 -0.392457,0.479106 -0.495735,1.034898 -0.527343,1.683594 -0.06322,1.297391 0.236256,3.148326 0.974609,6.064453 L 43.720703,42 H 56 v -1 c 0,-2.533333 -0.125025,-5.561937 -0.443359,-8.363281 -0.306163,-2.694224 -0.757135,-5.15034 -1.564453,-6.88086 A 4,4 0 0 0 50,22 Z m 0,2 A 2,2 0 0 1 52,25.986328 2,2 0 0 1 52,26 1,1 0 0 0 52,26.013672 2,2 0 0 1 50,28 2,2 0 0 1 48,26 2,2 0 0 1 50,24 Z m 2.878906,4.775391 c 0.283527,1.181645 0.520175,2.598238 0.689453,4.08789 0.268977,2.366998 0.351313,4.874616 0.378907,7.136719 H 45.34375 c -0.508625,-2.19753 -0.825028,-3.98256 -0.789062,-4.720703 0.01027,-0.21071 0.01384,-0.170332 0.03711,-0.253906 0.228709,0.09885 0.757329,0.369072 1.419922,0.890625 0.760066,0.598277 1.598884,1.334164 2.416015,1.904296 l 1.189454,0.830079 2.283203,-9.13086 h 0.002 a 4,4 0 0 0 0.976562,-0.74414 z" /><path
     id="path49"
     style="opacity:1;fill:#e7c591;fill-opacity:1;stroke:none;stroke-width:2;stroke-linecap:round;stroke-linejoin:round;stroke-dasharray:none;stroke-opacity:1"
     d="m 50,23 a 4,4 0 0 0 -3.966797,3.498047 4,4 0 0 0 3.6875,3.492187 l -0.244141,0.97461 a 4,4 0 0 0 0.244141,0.02539 l -1.316406,5.267578 c -0.39285,-0.318387 -0.749074,-0.593558 -1.15625,-0.914062 -0.818231,-0.64406 -1.538096,-1.264422 -2.550781,-1.425781 -0.506343,-0.08068 -1.220824,0.100971 -1.613282,0.580078 -0.366081,0.446907 -0.480145,0.961167 -0.519531,1.554687 0.07033,1.229123 0.379548,2.874017 0.966797,5.19336 L 43.720703,42 H 56 c 0,-2.533333 -0.125025,-5.561937 -0.443359,-8.363281 -0.306163,-2.694224 -0.757136,-5.15034 -1.564453,-6.88086 A 4,4 0 0 0 50,23 Z m 0,1 A 2,2 0 0 1 52,25.986328 2,2 0 0 1 52,26 1,1 0 0 0 52,26.013672 2,2 0 0 1 51.9375,26.5 2,2 0 0 1 52,26.986328 2,2 0 0 1 52,27 1,1 0 0 0 52,27.013672 2,2 0 0 1 50,29 2,2 0 0 1 48,27 2,2 0 0 1 48.064453,26.5 2,2 0 0 1 48,26 2,2 0 0 1 50,24 Z m 2.878906,4.775391 c 0.283523,1.181637 0.520177,2.598255 0.689453,4.08789 0.268977,2.366998 0.351313,4.874616 0.378907,7.136719 h -0.01563 c 0.0067,0.337724 0.01162,0.671451 0.01563,1 H 45.34375 c -0.508625,-2.19753 -0.825028,-3.98256 -0.789062,-4.720703 0.01027,-0.21071 0.01384,-0.170332 0.03711,-0.253906 -0.03303,-0.30829 -0.04616,-0.560318 -0.03711,-0.746094 0.01027,-0.21071 0.01384,-0.170332 0.03711,-0.253906 0.228709,0.09885 0.757329,0.369072 1.419922,0.890625 0.760066,0.598277 1.598884,1.334164 2.416015,1.904296 l 1.189454,0.830079 2.283203,-9.13086 h 0.002 a 4,4 0 0 0 0.976562,-0.74414 z" /><path
     id="path52"
     style="opacity:1;fill:#e7c591;fill-opacity:1;stroke:none;stroke-width:2;stroke-linecap:round;stroke-linejoin:round;stroke-dasharray:none;stroke-opacity:1"
     d="m 32,27 a 8,8 0 0 0 -8,8 h 1 14 1 a 8,8 0 0 0 -8,-8 z m 0,1 a 6,6 0 0 1 5.916016,5 H 37.65625 a 6,6 0 0 1 0.259766,1 H 26.083984 A 6,6 0 0 1 26.34375,33 H 26.083984 A 6,6 0 0 1 32,28 Z" /><path
     id="path53"
     style="opacity:1;fill:#e7c591;stroke:none;stroke-linecap:round;stroke-linejoin:round;stroke-opacity:0.501961"
     d="M 17,19 A 8,4 0 0 0 10.072266,21 8,2 0 0 1 17,20 8,2 0 0 1 23.927734,21 8,4 0 0 0 17,19 Z m 0,1 -0.08398,1 A 8,2 0 0 1 17,21 a 8,2 0 0 1 0.08398,0 z m 0,1 -0.333984,4.013672 a 4,4 0 0 0 -3.632813,3.49414 4,4 0 0 0 2.976563,3.367188 l -0.08203,0.978516 a 4,4 0 0 0 0.08203,0.02148 L 15.083984,44 h 3.832032 L 17.990234,32.875 a 4,4 0 0 0 0.08203,-0.02148 L 17.990234,31.875 a 4,4 0 0 0 2.976563,-3.367188 4,4 0 0 0 -3.632813,-3.49414 z m 0,5 A 2,2 0 0 1 17.261719,26.01758 2,2 0 0 1 19,28 a 2,2 0 0 1 -0.06445,0.503906 2,2 0 0 1 0,0.002 A 2,2 0 0 1 19,29 2,2 0 0 1 17.818359,30.824219 2,2 0 0 1 17,31 2,2 0 0 1 16.181641,30.824219 2,2 0 0 1 15,29 a 2,2 0 0 1 0.06445,-0.494141 2,2 0 0 1 0,-0.002 A 2,2 0 0 1 15,28 2,2 0 0 1 16.738281,26.017578 2,2 0 0 1 17,26 Z" /></svg>
