<?xml version="1.0" encoding="UTF-8" standalone="no"?>
<svg
   id="svg4379"
   height="64"
   width="64"
   version="1.1"
   sodipodi:docname="ref.svg"
   inkscape:version="1.4.3 (0d15f75042, 2025-12-25)"
   xml:space="preserve"
   xmlns:inkscape="http://www.inkscape.org/namespaces/inkscape"
   xmlns:sodipodi="http://sodipodi.sourceforge.net/DTD/sodipodi-0.dtd"
   xmlns:xlink="http://www.w3.org/1999/xlink"
   xmlns="http://www.w3.org/2000/svg"
   xmlns:svg="http://www.w3.org/2000/svg"
   xmlns:rdf="http://www.w3.org/1999/02/22-rdf-syntax-ns#"
   xmlns:cc="http://creativecommons.org/ns#"
   xmlns:dc="http://purl.org/dc/elements/1.1/"><sodipodi:namedview
     pagecolor="#ffffff"
     bordercolor="#666666"
     borderopacity="1"
     objecttolerance="10"
     gridtolerance="10"
     guidetolerance="10"
     inkscape:pageopacity="0"
     inkscape:pageshadow="2"
     inkscape:window-width="2560"
     inkscape:window-height="1373"
     id="namedview46"
     showgrid="false"
     inkscape:zoom="7.875"
     inkscape:cx="64"
     inkscape:cy="64"
     inkscape:window-x="0"
     inkscape:window-y="30"
     inkscape:window-maximized="1"
     inkscape:current-layer="svg4379"
     inkscape:document-rotation="0"
     inkscape:showpageshadow="2"
     inkscape:pagecheckerboard="0"
     inkscape:deskcolor="#d1d1d1"><inkscape:grid
       type="xygrid"
       id="grid865"
       empspacing="4"
       originx="-138"
       originy="0"
       spacingy="1"
       spacingx="1"
       units="px"
       visible="false" /><inkscape:grid
       type="xygrid"
       id="grid867"
       empspacing="2"
       spacingy="0.5"
       spacingx="0.5"
       dotted="true"
       originx="-138"
       originy="0"
       units="px"
       visible="false"
       snapvisiblegridlinesonly="false"
       empcolor="#0099e5"
       empopacity="0.05098039"
       color="#0099e5"
       opacity="0.01960784" /><inkscape:page
       x="0"
       y="0"
       width="64"
       height="64"
       id="page2"
       margin="0"
       bleed="0" /></sodipodi:namedview><defs
     id="defs4381"><linearGradient
       id="linearGradient23"
       inkscape:collect="always"><stop
         style="stop-color:#d4d4d4;stop-opacity:1;"
         offset="0"
         id="stop22" /><stop
         style="stop-color:#bababa;stop-opacity:1;"
         offset="0.18736914"
         id="stop24" /><stop
         style="stop-color:#d4d4d4;stop-opacity:1;"
         offset="0.44839388"
         id="stop25" /><stop
         style="stop-color:#bababa;stop-opacity:1;"
         offset="0.69351602"
         id="stop26" /><stop
         style="stop-color:#bababa;stop-opacity:1;"
         offset="0.93121827"
         id="stop29" /><stop
         style="stop-color:#d4d4d4;stop-opacity:1;"
         offset="1"
         id="stop23" /></linearGradient><linearGradient
       id="linearGradient8"
       inkscape:collect="always"><stop
         style="stop-color:#d4d4d4;stop-opacity:1;"
         offset="0"
         id="stop8" /><stop
         style="stop-color:#bababa;stop-opacity:1;"
         offset="1"
         id="stop9" /></linearGradient><linearGradient
       id="linearGradient28"><stop
         id="stop27"
         offset="0"
         style="stop-color:#33434e;stop-opacity:1;" /><stop
         id="stop28"
         offset="1"
         style="stop-color:#1c222f;stop-opacity:1;" /></linearGradient><linearGradient
       x1="24.000002"
       y1="5.8977075"
       x2="24.000002"
       y2="42.102268"
       id="linearGradient3381-5-4"
       xlink:href="#linearGradient3924-2-2-5-8"
       gradientUnits="userSpaceOnUse"
       gradientTransform="matrix(1.4324324,0,0,1.4362832,-2.37838,-2.4707782)" /><linearGradient
       id="linearGradient3924-2-2-5-8"><stop
         id="stop3926-9-4-9-6"
         style="stop-color:#ffffff;stop-opacity:1"
         offset="0" /><stop
         id="stop3928-9-8-6-5"
         style="stop-color:#ffffff;stop-opacity:0.23529412"
         offset="0.08653846" /><stop
         id="stop3930-3-5-1-7"
         style="stop-color:#ffffff;stop-opacity:0.15686275"
         offset="0.91346151" /><stop
         id="stop3932-8-0-4-8"
         style="stop-color:#ffffff;stop-opacity:0.39215687"
         offset="1" /></linearGradient><linearGradient
       xlink:href="#linearGradient28"
       id="linearGradient856-2-3"
       x1="23.528315"
       y1="6.08318"
       x2="23.528315"
       y2="44.23307"
       gradientUnits="userSpaceOnUse"
       gradientTransform="matrix(1.4102564,0,0,1.4102564,-1.84617,-3.2564048)" /><linearGradient
       inkscape:collect="always"
       xlink:href="#linearGradient8"
       id="linearGradient9"
       x1="17"
       y1="18"
       x2="17"
       y2="44"
       gradientUnits="userSpaceOnUse"
       gradientTransform="translate(-1)" /><linearGradient
       inkscape:collect="always"
       xlink:href="#linearGradient8"
       id="linearGradient11"
       x1="33"
       y1="19"
       x2="33"
       y2="44"
       gradientUnits="userSpaceOnUse" /><linearGradient
       inkscape:collect="always"
       xlink:href="#linearGradient8"
       id="linearGradient13"
       x1="51"
       y1="19"
       x2="51"
       y2="44"
       gradientUnits="userSpaceOnUse" /><linearGradient
       inkscape:collect="always"
       xlink:href="#linearGradient23"
       id="linearGradient22"
       x1="8"
       y1="13"
       x2="56"
       y2="13"
       gradientUnits="userSpaceOnUse" /><linearGradient
       inkscape:collect="always"
       xlink:href="#linearGradient23"
       id="linearGradient1"
       gradientUnits="userSpaceOnUse"
       x1="8"
       y1="13"
       x2="56"
       y2="13" /><linearGradient
       inkscape:collect="always"
       xlink:href="#linearGradient23"
       id="linearGradient2"
       gradientUnits="userSpaceOnUse"
       x1="8"
       y1="13"
       x2="56"
       y2="13" /><linearGradient
       inkscape:collect="always"
       xlink:href="#linearGradient23"
       id="linearGradient4"
       gradientUnits="userSpaceOnUse"
       x1="8"
       y1="13"
       x2="56"
       y2="13" /><linearGradient
       inkscape:collect="always"
       xlink:href="#linearGradient23"
       id="linearGradient5"
       gradientUnits="userSpaceOnUse"
       x1="8"
       y1="13"
       x2="56"
       y2="13" /><linearGradient
       inkscape:collect="always"
       xlink:href="#linearGradient23"
       id="linearGradient7"
       gradientUnits="userSpaceOnUse"
       x1="8"
       y1="13"
       x2="56"
       y2="13" /></defs><metadata
     id="metadata4384"><rdf:RDF><cc:Work
         rdf:about=""><dc:format>image/svg+xml</dc:format><dc:type
           rdf:resource="http://purl.org/dc/dcmitype/StillImage" /></cc:Work></rdf:RDF></metadata><rect
     style="color:#000000;display:inline;overflow:visible;visibility:visible;opacity:1;fill:url(#linearGradient856-2-3);fill-rule:nonzero;stroke:none;stroke-width:1;stroke-opacity:0.5;marker:none;enable-background:accumulate"
     id="rect5505-21-1-5"
     y="4.5000019"
     x="4.5"
     ry="6"
     rx="6"
     height="55"
     width="55" /><g
     id="g43"
     transform="translate(0,36)"><g
       id="g37"
       style="opacity:0.15;fill:#ffffff;fill-opacity:1;stroke:#ffffff;stroke-width:2;stroke-linecap:round;stroke-linejoin:round;stroke-dasharray:none;stroke-opacity:1"
       transform="translate(0,1)"><path
         style="baseline-shift:baseline;display:inline;overflow:visible;fill:#ffffff;fill-opacity:1;stroke:#ffffff;stroke-width:2;stroke-linecap:round;stroke-linejoin:round;stroke-dasharray:none;stroke-opacity:1;enable-background:accumulate;stop-color:#000000;stop-opacity:1"
         d="M 56,13 H 8"
         id="path36" /><path
         style="baseline-shift:baseline;display:inline;overflow:visible;fill:#ffffff;fill-opacity:1;stroke:#ffffff;stroke-width:2;stroke-linecap:round;stroke-linejoin:round;stroke-dasharray:none;stroke-opacity:1;enable-background:accumulate;stop-color:#000000;stop-opacity:1"
         d="m 8,12 v 2 h 48 v -2 z"
         id="path37" /></g><g
       id="g42"
       style="opacity:1;fill:url(#linearGradient4);fill-opacity:1;stroke:none"><path
         style="baseline-shift:baseline;display:inline;overflow:visible;vector-effect:none;fill:url(#linearGradient1);fill-opacity:1;stroke:none;enable-background:accumulate;stop-color:#000000;stop-opacity:1"
         d="M 56,13 H 8"
         id="path40" /><path
         style="baseline-shift:baseline;display:inline;overflow:visible;vector-effect:none;fill:url(#linearGradient2);fill-opacity:1;stroke:none;enable-background:accumulate;stop-color:#000000;stop-opacity:1"
         d="m 8,12 v 2 h 48 v -2 z"
         id="path42" /></g><path
       style="opacity:0.15;fill:none;fill-opacity:1;stroke:#000000;stroke-width:1;stroke-linecap:butt;stroke-linejoin:round;stroke-dasharray:none;stroke-opacity:1"
       d="M 8,12.5 H 56"
       id="path43" /></g><g
     id="g36"><g
       id="g32"
       style="opacity:0.15;fill:#ffffff;fill-opacity:1;stroke:#ffffff;stroke-width:2;stroke-linecap:round;stroke-linejoin:round;stroke-dasharray:none;stroke-opacity:1"
       transform="translate(0,1)"><path
         style="baseline-shift:baseline;display:inline;overflow:visible;fill:#ffffff;fill-opacity:1;stroke:#ffffff;stroke-width:2;stroke-linecap:round;stroke-linejoin:round;stroke-dasharray:none;stroke-opacity:1;enable-background:accumulate;stop-color:#000000;stop-opacity:1"
         d="M 56,13 H 8"
         id="path30" /><path
         style="baseline-shift:baseline;display:inline;overflow:visible;fill:#ffffff;fill-opacity:1;stroke:#ffffff;stroke-width:2;stroke-linecap:round;stroke-linejoin:round;stroke-dasharray:none;stroke-opacity:1;enable-background:accumulate;stop-color:#000000;stop-opacity:1"
         d="m 8,12 v 2 h 48 v -2 z"
         id="path32" /></g><g
       id="path18"
       style="opacity:1;fill:url(#linearGradient22);fill-opacity:1;stroke:none"><path
         style="baseline-shift:baseline;display:inline;overflow:visible;vector-effect:none;fill:url(#linearGradient5);fill-opacity:1;stroke:none;enable-background:accumulate;stop-color:#000000;stop-opacity:1"
         d="M 56,13 H 8"
         id="path19" /><path
         style="baseline-shift:baseline;display:inline;overflow:visible;vector-effect:none;fill:url(#linearGradient7);fill-opacity:1;stroke:none;enable-background:accumulate;stop-color:#000000;stop-opacity:1"
         d="m 8,12 v 2 h 48 v -2 z"
         id="path21" /></g><path
       style="opacity:0.15;fill:none;fill-opacity:1;stroke:#000000;stroke-width:1;stroke-linecap:butt;stroke-linejoin:round;stroke-dasharray:none;stroke-opacity:1"
       d="M 8,12.5 H 56"
       id="path34" /></g><rect
     style="opacity:0.35;fill:none;stroke:url(#linearGradient3381-5-4);stroke-width:1;stroke-linecap:round;stroke-linejoin:round;stroke-miterlimit:4;stroke-dasharray:none;stroke-dashoffset:0;stroke-opacity:1"
     id="rect6741-5-0-2-3"
     y="5.5"
     x="5.5"
     ry="5"
     height="53"
     width="53"
     rx="5" /><rect
     style="color:#000000;display:inline;overflow:visible;visibility:visible;opacity:0.5;fill:none;fill-opacity:1;fill-rule:nonzero;stroke:#273445;stroke-width:1;stroke-opacity:1;marker:none;enable-background:accumulate"
     id="rect863"
     y="4.5000019"
     x="4.5"
     ry="6"
     rx="6"
     height="55"
     width="55" /><path
     id="path28"
     style="opacity:0.15;fill:#fafafa;stroke:#fafafa;stroke-width:2;stroke-linecap:round;stroke-linejoin:round;stroke-dasharray:none;stroke-opacity:1"
     d="m 25,39 v 4 l -2,6 -6,3 8,-3 8,9 h 4 L 25,48 26,43.5 Z"
     sodipodi:nodetypes="cccccccccc" /><path
     style="opacity:0.15;fill:#fafafa;stroke:#fafafa;stroke-width:2;stroke-linecap:round;stroke-linejoin:round;stroke-dasharray:none;stroke-opacity:1"
     d="m 45,6 v 8 l 5,3 H 45 L 41,23 30,25.947441 40,21 44,16 42,6 Z"
     id="path26"
     sodipodi:nodetypes="cccccccccc" /><path
     style="opacity:1;fill:#1c222f;fill-opacity:1;stroke:none;stroke-linecap:round;stroke-linejoin:round;stroke-opacity:0.501961"
     d="m 45,5 v 8 l 5,3 H 45 L 41,22 30,24.947441 40,20 44,15 42,5 Z"
     id="path11"
     sodipodi:nodetypes="cccccccccc" /><path
     style="opacity:0.15;fill:#fafafa;stroke:#fafafa;stroke-width:2;stroke-linecap:round;stroke-linejoin:round;stroke-dasharray:none;stroke-opacity:1"
     d="m 53,17 h 5 v 3 z"
     id="path27"
     sodipodi:nodetypes="cccc" /><path
     style="opacity:1;fill:#1c222f;fill-opacity:1;stroke:none;stroke-linecap:round;stroke-linejoin:round;stroke-opacity:0.501961"
     d="m 53,16 h 6 v 3 z"
     id="path12"
     sodipodi:nodetypes="cccc" /><path
     id="path15"
     style="opacity:1;fill:#0e141f;stroke:none;stroke-linecap:round;stroke-linejoin:round;stroke-opacity:0.501961"
     d="m 25,38 v 4 l -2,6 -6,3 8,-2 9,10 h 5 L 25,47 26,42.5 Z" /><path
     style="opacity:0.15;fill:#fafafa;stroke:#fafafa;stroke-linecap:round;stroke-linejoin:round;stroke-opacity:1"
     d="m 15,55 -4,4 h 2.5 z"
     id="path29"
     sodipodi:nodetypes="cccc" /><path
     style="opacity:1;fill:#0e141f;stroke:none;stroke-linecap:round;stroke-linejoin:round;stroke-opacity:0.501961"
     d="m 15,54 -5,5 h 3 z"
     id="path16"
     sodipodi:nodetypes="cccc" /><path
     style="opacity:1;fill:#0e141f;fill-opacity:1;stroke:none;stroke-linecap:round;stroke-linejoin:round;stroke-opacity:0.501961"
     d="m 42,5 2,10 -4,5 -10,5 10,-4 5,-6 5,1 -5,-3 z"
     id="path20"
     sodipodi:nodetypes="ccccccccc" /><path
     style="opacity:1;fill:#0e141f;fill-opacity:1;stroke:none;stroke-linecap:round;stroke-linejoin:round;stroke-opacity:0.501961"
     d="m 53,16 h 6 v 1 z"
     id="path23"
     sodipodi:nodetypes="cccc" /><path
     id="path39"
     style="opacity:0.15;fill:#ffffff;fill-opacity:1;stroke:#ffffff;stroke-width:2;stroke-linecap:round;stroke-linejoin:round;stroke-dasharray:none;stroke-opacity:1"
     d="m 32,27 a 8,8 0 0 0 -8,8 v 1 h 1 14 1 v -1 a 8,8 0 0 0 -8,-8 z m 0,2 a 6,6 0 0 1 5.91602,5 H 26.08398 A 6,6 0 0 1 32,29 Z" /><path
     id="path31"
     style="opacity:1;fill:#abacae;fill-opacity:1;stroke:none;stroke-width:2;stroke-linecap:round;stroke-linejoin:round;stroke-dasharray:none;stroke-opacity:1"
     d="m 32,26 a 8,8 0 0 0 -8,8 v 1 h 1 14 1 v -1 a 8,8 0 0 0 -8,-8 z m 0,2 a 6,6 0 0 1 5.91602,5 H 26.08398 A 6,6 0 0 1 32,28 Z" /><path
     id="path52"
     style="opacity:1;fill:url(#linearGradient11);fill-opacity:1;stroke:none;stroke-width:2;stroke-linecap:round;stroke-linejoin:round;stroke-dasharray:none;stroke-opacity:1"
     d="m 32,27 a 8,8 0 0 0 -8,8 h 1 14 1 a 8,8 0 0 0 -8,-8 z m 0,1 a 6,6 0 0 1 5.91602,5 h -0.25977 a 6,6 0 0 1 0.25977,1 H 26.08398 a 6,6 0 0 1 0.25977,-1 H 26.08398 A 6,6 0 0 1 32,28 Z" /><g
     id="g34"><path
       id="path41"
       style="opacity:0.15;fill:#ffffff;fill-opacity:1;stroke:#ffffff;stroke-linecap:round;stroke-linejoin:round;stroke-opacity:1"
       d="m 16,19 a 8,4 0 0 0 -8,4 8,2 0 0 1 8,-2 8,2 0 0 1 8,2 8,4 0 0 0 -8,-4 z m 0,2 -0.333984,4.013672 A 4,4 0 0 0 12,29 4,4 0 0 0 15.009766,32.875 L 14,45 h 4 L 16.990234,32.875 A 4,4 0 0 0 20,29 4,4 0 0 0 16.333984,25.013672 Z m 0,6 A 2,2 0 0 1 16.261719,27.01758 2,2 0 0 1 18,29 2,2 0 0 1 16.818359,30.824219 2,2 0 0 1 16,31 2,2 0 0 1 15.181641,30.824219 2,2 0 0 1 14,29 2,2 0 0 1 15.738281,27.017578 2,2 0 0 1 16,27 Z" /><path
       id="path17"
       style="opacity:1;fill:#abacae;fill-opacity:1;stroke:none;stroke-linecap:round;stroke-linejoin:round;stroke-opacity:0.501961"
       d="m 16,18 a 8,4 0 0 0 -8,4 8,2 0 0 1 8,-2 8,2 0 0 1 8,2 8,4 0 0 0 -8,-4 z m 0,2 -0.333984,4.013672 a 4,4 0 0 0 -1.949219,0.703125 L 12,23 v 3.5 L 9,28 12,29.5 V 33 l 1.716797,-1.716797 A 4,4 0 0 0 15.009766,31.875 L 14,44 h 4 L 16.990234,31.875 a 4,4 0 0 0 1.292969,-0.591797 L 20,33 V 29.5 L 23,28 20,26.5 V 23 l -1.716797,1.716797 a 4,4 0 0 0 -1.949219,-0.703125 z m 0,6 A 2,2 0 0 1 16.261719,26.01758 2,2 0 0 1 18,28 2,2 0 0 1 16.818359,29.824219 2,2 0 0 1 16,30 2,2 0 0 1 15.181641,29.824219 2,2 0 0 1 14,28 2,2 0 0 1 15.738281,26.017578 2,2 0 0 1 16,26 Z" /><path
       id="path3"
       style="opacity:1;fill:url(#linearGradient9);fill-opacity:1;stroke:none;stroke-linecap:round;stroke-linejoin:round;stroke-opacity:0.501961"
       d="M 16,19 A 8,4 0 0 0 9.072266,21 8,2 0 0 1 16,20 8,2 0 0 1 22.927734,21 8,4 0 0 0 16,19 Z m 0,1 -0.08398,1 A 8,2 0 0 1 16,21 a 8,2 0 0 1 0.08398,0 z m 0,1 -0.333984,4.013672 a 4,4 0 0 0 -1.949219,0.703125 L 12,24 v 2.5 1 l -2,1 2,1 v 1 2.5 l 1.716797,-1.716797 A 4,4 0 0 0 15.009766,31.875 l -0.08203,0.978516 a 4,4 0 0 0 0.08203,0.02148 L 14.083984,44 h 3.832032 L 16.990234,32.875 a 4,4 0 0 0 0.08203,-0.02148 L 16.990234,31.875 a 4,4 0 0 0 1.292969,-0.591797 L 20,33 v -2.5 -1 l 2,-1 -2,-1 v -1 -2.5 l -1.716797,1.716797 a 4,4 0 0 0 -1.949219,-0.703125 z m 0,5 A 2,2 0 0 1 16.261719,26.01758 2,2 0 0 1 18,28 a 2,2 0 0 1 -0.06445,0.503906 2,2 0 0 1 0,0.002 A 2,2 0 0 1 18,29 2,2 0 0 1 16.818359,30.824219 2,2 0 0 1 16,31 2,2 0 0 1 15.181641,30.824219 2,2 0 0 1 14,29 a 2,2 0 0 1 0.06445,-0.494141 2,2 0 0 1 0,-0.002 A 2,2 0 0 1 14,28 2,2 0 0 1 15.738281,26.017578 2,2 0 0 1 16,26 Z" /><path
       id="path13"
       style="opacity:0.06;fill:#000000;fill-opacity:1;stroke:none;stroke-linecap:round;stroke-linejoin:round;stroke-opacity:0.501961"
       d="m 16,18 a 8,4 0 0 0 -8,4 8,2 0 0 1 8,-2 8,2 0 0 1 8,2 8,4 0 0 0 -8,-4 z m 0,2 -0.333984,4.013672 a 4,4 0 0 0 -1.949219,0.703125 L 12,23 v 3.5 L 9,28 12,29.5 V 33 l 1.716797,-1.716797 A 4,4 0 0 0 15.009766,31.875 L 14,44 h 4 L 16.990234,31.875 a 4,4 0 0 0 1.292969,-0.591797 L 20,33 V 29.5 L 23,28 20,26.5 V 23 l -1.716797,1.716797 a 4,4 0 0 0 -1.949219,-0.703125 z m 0,6 A 2,2 0 0 1 16.261719,26.01758 2,2 0 0 1 18,28 2,2 0 0 1 16.818359,29.824219 2,2 0 0 1 16,30 2,2 0 0 1 15.181641,29.824219 2,2 0 0 1 14,28 2,2 0 0 1 15.738281,26.017578 2,2 0 0 1 16,26 Z" /></g><g
     id="g35"><path
       id="path38"
       style="opacity:0.15;fill:#ffffff;fill-opacity:1;stroke:#ffffff;stroke-width:2;stroke-linecap:round;stroke-linejoin:round;stroke-dasharray:none;stroke-opacity:1"
       d="m 50,23 a 4,4 0 0 0 -4,4 4,4 0 0 0 3.720703,3.990234 l -1.316406,5.267578 c -0.39285,-0.318387 -0.749074,-0.593558 -1.15625,-0.914062 -0.818231,-0.64406 -1.538096,-1.264422 -2.550781,-1.425781 -0.506343,-0.08068 -1.220824,0.100971 -1.613282,0.580078 -0.392457,0.479106 -0.495735,1.034898 -0.527343,1.683594 -0.06322,1.297391 0.236256,3.148326 0.974609,6.064453 L 43.720703,43 H 56 v -1 c 0,-2.533333 -0.125025,-5.561937 -0.443359,-8.363281 -0.306163,-2.694224 -0.757135,-5.15034 -1.564453,-6.88086 A 4,4 0 0 0 50,23 Z m 0,2 A 2,2 0 0 1 52,26.986328 2,2 0 0 1 52,27 1,1 0 0 0 52,27.013672 2,2 0 0 1 50,29 2,2 0 0 1 48,27 2,2 0 0 1 50,25 Z m 2.878906,4.775391 c 0.283527,1.181645 0.520175,2.598238 0.689453,4.08789 0.268977,2.366998 0.351313,4.874616 0.378907,7.136719 H 45.34375 c -0.508625,-2.19753 -0.825028,-3.98256 -0.789062,-4.720703 0.01027,-0.21071 0.01384,-0.170332 0.03711,-0.253906 0.228709,0.09885 0.757329,0.369072 1.419922,0.890625 0.760066,0.598277 1.598884,1.334164 2.416015,1.904296 l 1.189454,0.830079 2.283203,-9.13086 h 0.002 a 4,4 0 0 0 0.976562,-0.74414 z" /><path
       id="path4"
       style="baseline-shift:baseline;display:inline;overflow:visible;opacity:1;vector-effect:none;fill:#abacae;stroke-linecap:round;enable-background:accumulate;stop-color:#000000;stop-opacity:1"
       d="m 50,22 c -2.197294,0 -4,1.802706 -4,4 0,2.103631 1.651727,3.845549 3.720703,3.990234 l -1.310547,5.246094 c -0.493795,-0.407895 -0.995001,-0.842062 -1.46875,-1.185547 -0.871474,-0.63185 -1.58779,-1.212769 -2.669922,-1.152343 -0.541065,0.03021 -1.165303,0.444046 -1.408203,0.958984 -0.2429,0.514938 -0.268522,1.047841 -0.226562,1.691406 0.08392,1.28713 0.523755,3.082859 1.414062,5.765625 L 44.277344,42 H 56 v -6.835938 c 0.01051,-0.01275 0.02093,-0.02616 0.03125,-0.03906 C 56.714088,34.271453 57,33.166667 57,32 v -0.21875 l -3.091797,-6.701172 a 1,1 0 0 0 -0.03125,-0.0625 C 53.435436,23.289796 51.858868,22 50,22 Z m 0,2 c 1.116414,0 2,0.883586 2,2 0,0.08153 -0.0045,0.161443 -0.01367,0.240234 L 49.550781,24.048828 C 49.69474,24.01666 49.84538,24 50,24 Z m -1.917969,1.421875 2.695313,2.423828 C 50.53925,27.944257 50.276563,28 50,28 c -1.116414,0 -2,-0.883586 -2,-2 0,-0.201797 0.02814,-0.395385 0.08203,-0.578125 z M 52,29.458984 V 36.5 h 1 c 0.346888,0 0.682102,-0.04092 1,-0.117188 V 40 h -8.222656 c -0.647712,-2.071607 -1.091903,-3.774843 -1.144532,-4.582031 -0.01588,-0.243567 0.0063,-0.251867 0.02148,-0.371094 0.155466,0.07423 0.497171,0.176344 1.113281,0.623047 0.766451,0.555705 1.679443,1.335996 2.589844,2.097656 l 1.224609,1.023438 2.320313,-9.277344 c 0.03272,-0.01787 0.06549,-0.03594 0.09766,-0.05469 z m 2,0.595704 0.960938,2.082031 C 54.932572,32.883541 54.762772,33.507473 54.46875,33.875 54.367547,34.001503 54.127024,33.983919 54,34.074219 Z" /><path
       id="path7"
       style="baseline-shift:baseline;display:inline;overflow:visible;opacity:1;vector-effect:none;fill:url(#linearGradient13);stroke-linecap:round;enable-background:accumulate;stop-color:#000000;stop-opacity:1"
       d="m 50,23 c -2.028087,0 -3.720195,1.535713 -3.96875,3.5 0.237034,1.873525 1.786925,3.357189 3.689453,3.490234 l -0.244141,0.97461 c 0.08052,0.01066 0.16224,0.01966 0.244141,0.02539 l -1.310547,5.246094 c -0.493795,-0.407895 -0.995001,-0.842062 -1.46875,-1.185547 -0.871474,-0.63185 -1.58779,-1.212769 -2.669922,-1.152343 -0.541065,0.03021 -1.165303,0.444046 -1.408203,0.958984 -0.120562,0.255588 -0.18694,0.515241 -0.21875,0.791016 0.09961,1.279786 0.538761,3.052004 1.40625,5.666015 L 44.277344,42 H 56 v -5.835938 -1 c 0.01051,-0.01275 0.02093,-0.02616 0.03125,-0.03906 0.544,-0.679999 0.835358,-1.518705 0.931641,-2.421875 6.8e-5,-6.39e-4 -6.8e-5,-0.0013 0,-0.002 l -3.054688,-6.621094 a 1,1 0 0 0 -0.03125,-0.0625 C 53.435436,24.289796 51.858868,23 50,23 Z m 0,1 c 1.116414,0 2,0.883586 2,2 0,0.08153 -0.0045,0.161443 -0.01367,0.240234 L 51.755859,26.033203 C 51.911169,26.318535 52,26.647963 52,27 c 0,0.08153 -0.0045,0.161443 -0.01367,0.240234 L 49.550781,25.048828 C 49.69474,25.01666 49.84538,25 50,25 c 0.277128,0 0.540815,0.05536 0.779297,0.154297 L 49.550781,24.048828 C 49.69474,24.01666 49.84538,24 50,24 Z m -1.917969,1.421875 2.695313,2.423828 C 50.53925,27.944257 50.276563,28 50,28 49.94241,28 49.886342,27.9968 49.830078,27.9922 l 0.947266,0.853515 C 50.53925,28.944257 50.276563,29 50,29 48.883586,29 48,28.116414 48,27 48,26.826328 48.02038,26.657876 48.06055,26.498047 48.020679,26.338919 48,26.172675 48,26 c 0,-0.201797 0.02814,-0.395385 0.08203,-0.578125 z M 52,29.458984 v 1 V 36.5 h 1 c 0.346888,0 0.682102,-0.04092 1,-0.117188 v 1 V 40 41 h -8.222656 c -0.647712,-2.071607 -1.091903,-3.774843 -1.144532,-4.582031 -0.01588,-0.243567 0.0063,-0.251867 0.02148,-0.371094 0.01976,0.0094 0.04241,0.02027 0.06836,0.03125 -0.04769,-0.25955 -0.07824,-0.482124 -0.08984,-0.660156 -0.01588,-0.243567 0.0063,-0.251867 0.02148,-0.371094 0.155466,0.07423 0.497171,0.176344 1.113281,0.623047 0.766451,0.555705 1.679443,1.335996 2.589844,2.097656 l 1.224609,1.023438 2.320313,-9.277344 c 0.03272,-0.01787 0.06549,-0.03594 0.09766,-0.05469 z m 2,0.595704 0.960938,2.082031 c -0.01087,0.286061 -0.04235,0.554377 -0.09375,0.796875 l 0.09375,0.203125 C 54.932572,33.883541 54.762772,34.507473 54.46875,34.875 54.367547,35.001503 54.127024,34.983919 54,35.074219 v -1 -3.019531 z" /><path
       id="path14"
       style="baseline-shift:baseline;display:inline;overflow:visible;opacity:0.15;vector-effect:none;fill:#000000;fill-opacity:1;stroke-linecap:round;enable-background:accumulate;stop-color:#000000;stop-opacity:1"
       d="m 50,22 c -2.197294,0 -4,1.802706 -4,4 0,2.103631 1.651727,3.845549 3.720703,3.990234 l -1.310547,5.246094 c -0.493795,-0.407895 -0.995001,-0.842062 -1.46875,-1.185547 -0.871474,-0.63185 -1.58779,-1.212769 -2.669922,-1.152343 -0.541065,0.03021 -1.165303,0.444046 -1.408203,0.958984 -0.2429,0.514938 -0.268522,1.047841 -0.226562,1.691406 0.08392,1.28713 0.523755,3.082859 1.414062,5.765625 L 44.277344,42 H 56 v -6.835938 c 0.01051,-0.01275 0.02093,-0.02616 0.03125,-0.03906 C 56.714088,34.271453 57,33.166667 57,32 v -0.21875 l -3.091797,-6.701172 a 1,1 0 0 0 -0.03125,-0.0625 C 53.435436,23.289796 51.858868,22 50,22 Z m 0,2 c 1.116414,0 2,0.883586 2,2 0,0.08153 -0.0045,0.161443 -0.01367,0.240234 L 49.550781,24.048828 C 49.69474,24.01666 49.84538,24 50,24 Z m -1.917969,1.421875 2.695313,2.423828 C 50.53925,27.944257 50.276563,28 50,28 c -1.116414,0 -2,-0.883586 -2,-2 0,-0.201797 0.02814,-0.395385 0.08203,-0.578125 z M 52,29.458984 V 36.5 h 1 c 0.346888,0 0.682102,-0.04092 1,-0.117188 V 40 h -8.222656 c -0.647712,-2.071607 -1.091903,-3.774843 -1.144532,-4.582031 -0.01588,-0.243567 0.0063,-0.251867 0.02148,-0.371094 0.155466,0.07423 0.497171,0.176344 1.113281,0.623047 0.766451,0.555705 1.679443,1.335996 2.589844,2.097656 l 1.224609,1.023438 2.320313,-9.277344 c 0.03272,-0.01787 0.06549,-0.03594 0.09766,-0.05469 z m 2,0.595704 0.960938,2.082031 C 54.932572,32.883541 54.762772,33.507473 54.46875,33.875 54.367547,34.001503 54.127024,33.983919 54,34.074219 Z" /></g></svg>
